<mxfile host="Electron" agent="Mozilla/5.0 (Windows NT 10.0; Win64; x64) AppleWebKit/537.36 (KHTML, like Gecko) draw.io/25.0.2 Chrome/128.0.6613.186 Electron/32.2.5 Safari/537.36" version="25.0.2">
  <diagram name="Page-1" id="3a5IzrnYuFI93YkWxfg_">
    <mxGraphModel dx="1480" dy="866" grid="1" gridSize="10" guides="1" tooltips="1" connect="1" arrows="1" fold="1" page="1" pageScale="1" pageWidth="850" pageHeight="1100" math="0" shadow="0">
      <root>
        <mxCell id="0" />
        <mxCell id="1" parent="0" />
        <mxCell id="ZCRnJ9vzYanFj2SS8UY6-4" value="" style="rounded=0;whiteSpace=wrap;html=1;strokeWidth=2;" vertex="1" parent="1">
          <mxGeometry x="80" y="253" width="1200" height="530" as="geometry" />
        </mxCell>
        <mxCell id="ZCRnJ9vzYanFj2SS8UY6-32" value="" style="rounded=0;whiteSpace=wrap;html=1;fontStyle=1;strokeWidth=2;" vertex="1" parent="1">
          <mxGeometry x="150" y="363" width="1040" height="186.75" as="geometry" />
        </mxCell>
        <mxCell id="ZCRnJ9vzYanFj2SS8UY6-1" value="Student&amp;nbsp;" style="rounded=0;whiteSpace=wrap;html=1;" vertex="1" parent="1">
          <mxGeometry x="140" y="190" width="120" height="40" as="geometry" />
        </mxCell>
        <mxCell id="ZCRnJ9vzYanFj2SS8UY6-2" value="Application" style="rounded=0;whiteSpace=wrap;html=1;" vertex="1" parent="1">
          <mxGeometry x="322" y="190" width="120" height="40" as="geometry" />
        </mxCell>
        <mxCell id="ZCRnJ9vzYanFj2SS8UY6-3" value="Database" style="rounded=0;whiteSpace=wrap;html=1;" vertex="1" parent="1">
          <mxGeometry x="1087" y="190" width="120" height="40" as="geometry" />
        </mxCell>
        <mxCell id="ZCRnJ9vzYanFj2SS8UY6-6" value="" style="endArrow=none;dashed=1;html=1;rounded=0;entryX=0.5;entryY=1;entryDx=0;entryDy=0;exitX=0.5;exitY=0;exitDx=0;exitDy=0;" edge="1" parent="1" source="ZCRnJ9vzYanFj2SS8UY6-69" target="ZCRnJ9vzYanFj2SS8UY6-1">
          <mxGeometry width="50" height="50" relative="1" as="geometry">
            <mxPoint x="200" y="590" as="sourcePoint" />
            <mxPoint x="190" y="310" as="targetPoint" />
          </mxGeometry>
        </mxCell>
        <mxCell id="ZCRnJ9vzYanFj2SS8UY6-46" style="edgeStyle=orthogonalEdgeStyle;rounded=0;orthogonalLoop=1;jettySize=auto;html=1;entryX=0;entryY=0.5;entryDx=0;entryDy=0;" edge="1" parent="1" source="ZCRnJ9vzYanFj2SS8UY6-7" target="ZCRnJ9vzYanFj2SS8UY6-33">
          <mxGeometry relative="1" as="geometry">
            <Array as="points">
              <mxPoint x="290" y="383" />
              <mxPoint x="290" y="383" />
            </Array>
          </mxGeometry>
        </mxCell>
        <mxCell id="ZCRnJ9vzYanFj2SS8UY6-47" style="edgeStyle=orthogonalEdgeStyle;rounded=0;orthogonalLoop=1;jettySize=auto;html=1;entryX=0;entryY=0.5;entryDx=0;entryDy=0;" edge="1" parent="1" source="ZCRnJ9vzYanFj2SS8UY6-7" target="ZCRnJ9vzYanFj2SS8UY6-35">
          <mxGeometry relative="1" as="geometry">
            <Array as="points">
              <mxPoint x="330" y="420" />
              <mxPoint x="330" y="420" />
            </Array>
          </mxGeometry>
        </mxCell>
        <mxCell id="ZCRnJ9vzYanFj2SS8UY6-8" value="" style="endArrow=none;dashed=1;html=1;rounded=0;entryX=0.5;entryY=1;entryDx=0;entryDy=0;exitX=0.5;exitY=0;exitDx=0;exitDy=0;" edge="1" parent="1" source="ZCRnJ9vzYanFj2SS8UY6-72">
          <mxGeometry width="50" height="50" relative="1" as="geometry">
            <mxPoint x="382" y="590" as="sourcePoint" />
            <mxPoint x="382" y="230" as="targetPoint" />
          </mxGeometry>
        </mxCell>
        <mxCell id="ZCRnJ9vzYanFj2SS8UY6-10" value="" style="endArrow=classic;html=1;rounded=0;exitX=1;exitY=0;exitDx=0;exitDy=0;entryX=0;entryY=0;entryDx=0;entryDy=0;" edge="1" parent="1" source="ZCRnJ9vzYanFj2SS8UY6-7" target="ZCRnJ9vzYanFj2SS8UY6-9">
          <mxGeometry width="50" height="50" relative="1" as="geometry">
            <mxPoint x="420" y="450" as="sourcePoint" />
            <mxPoint x="470" y="400" as="targetPoint" />
          </mxGeometry>
        </mxCell>
        <mxCell id="ZCRnJ9vzYanFj2SS8UY6-11" value="" style="endArrow=none;dashed=1;html=1;rounded=0;entryX=0.5;entryY=1;entryDx=0;entryDy=0;exitX=0.5;exitY=0;exitDx=0;exitDy=0;" edge="1" parent="1" source="ZCRnJ9vzYanFj2SS8UY6-71">
          <mxGeometry width="50" height="50" relative="1" as="geometry">
            <mxPoint x="1147" y="640" as="sourcePoint" />
            <mxPoint x="1147" y="230" as="targetPoint" />
          </mxGeometry>
        </mxCell>
        <mxCell id="ZCRnJ9vzYanFj2SS8UY6-12" value="" style="rounded=0;whiteSpace=wrap;html=1;" vertex="1" parent="1">
          <mxGeometry x="1137" y="297" width="20" height="233" as="geometry" />
        </mxCell>
        <mxCell id="ZCRnJ9vzYanFj2SS8UY6-13" value="1. Enter Credentials" style="text;html=1;align=center;verticalAlign=middle;whiteSpace=wrap;rounded=0;" vertex="1" parent="1">
          <mxGeometry x="240" y="270" width="110" height="30" as="geometry" />
        </mxCell>
        <mxCell id="ZCRnJ9vzYanFj2SS8UY6-14" value="" style="endArrow=classic;html=1;rounded=0;entryX=0;entryY=0;entryDx=0;entryDy=0;exitX=1;exitY=0;exitDx=0;exitDy=0;" edge="1" parent="1" source="ZCRnJ9vzYanFj2SS8UY6-9" target="ZCRnJ9vzYanFj2SS8UY6-12">
          <mxGeometry width="50" height="50" relative="1" as="geometry">
            <mxPoint x="520" y="300" as="sourcePoint" />
            <mxPoint x="720" y="300" as="targetPoint" />
          </mxGeometry>
        </mxCell>
        <mxCell id="ZCRnJ9vzYanFj2SS8UY6-16" value="1.1. Check Credentials" style="text;html=1;align=center;verticalAlign=middle;whiteSpace=wrap;rounded=0;" vertex="1" parent="1">
          <mxGeometry x="550" y="270" width="130" height="30" as="geometry" />
        </mxCell>
        <mxCell id="ZCRnJ9vzYanFj2SS8UY6-19" value="1.2. Response" style="text;html=1;align=center;verticalAlign=middle;whiteSpace=wrap;rounded=0;" vertex="1" parent="1">
          <mxGeometry x="550" y="312" width="130" height="30" as="geometry" />
        </mxCell>
        <mxCell id="ZCRnJ9vzYanFj2SS8UY6-20" value="ALT" style="text;html=1;align=center;verticalAlign=middle;whiteSpace=wrap;rounded=0;" vertex="1" parent="1">
          <mxGeometry x="70" y="250" width="60" height="30" as="geometry" />
        </mxCell>
        <mxCell id="ZCRnJ9vzYanFj2SS8UY6-21" value="[ CORRECT CREDENTIALS ]" style="text;html=1;align=center;verticalAlign=middle;whiteSpace=wrap;rounded=0;" vertex="1" parent="1">
          <mxGeometry x="207" y="250" width="170" height="30" as="geometry" />
        </mxCell>
        <mxCell id="ZCRnJ9vzYanFj2SS8UY6-22" value="View Attendance" style="rounded=0;whiteSpace=wrap;html=1;" vertex="1" parent="1">
          <mxGeometry x="490" y="190" width="120" height="40" as="geometry" />
        </mxCell>
        <mxCell id="ZCRnJ9vzYanFj2SS8UY6-23" value="View Subject wise Attendance" style="rounded=0;whiteSpace=wrap;html=1;" vertex="1" parent="1">
          <mxGeometry x="640" y="190" width="120" height="40" as="geometry" />
        </mxCell>
        <mxCell id="ZCRnJ9vzYanFj2SS8UY6-24" value="View Deafulter&#39;s List" style="rounded=0;whiteSpace=wrap;html=1;" vertex="1" parent="1">
          <mxGeometry x="780" y="190" width="120" height="40" as="geometry" />
        </mxCell>
        <mxCell id="ZCRnJ9vzYanFj2SS8UY6-25" value="Raise a complaint" style="rounded=0;whiteSpace=wrap;html=1;" vertex="1" parent="1">
          <mxGeometry x="920" y="190" width="120" height="40" as="geometry" />
        </mxCell>
        <mxCell id="ZCRnJ9vzYanFj2SS8UY6-27" value="1.3. Successful Login" style="text;html=1;align=center;verticalAlign=middle;whiteSpace=wrap;rounded=0;" vertex="1" parent="1">
          <mxGeometry x="240" y="318" width="110" height="30" as="geometry" />
        </mxCell>
        <mxCell id="ZCRnJ9vzYanFj2SS8UY6-29" value="" style="endArrow=none;dashed=1;html=1;rounded=0;entryX=0.5;entryY=1;entryDx=0;entryDy=0;exitX=0.5;exitY=0;exitDx=0;exitDy=0;" edge="1" parent="1" source="ZCRnJ9vzYanFj2SS8UY6-61">
          <mxGeometry width="50" height="50" relative="1" as="geometry">
            <mxPoint x="700" y="580" as="sourcePoint" />
            <mxPoint x="699.68" y="230" as="targetPoint" />
          </mxGeometry>
        </mxCell>
        <mxCell id="ZCRnJ9vzYanFj2SS8UY6-30" value="" style="endArrow=none;dashed=1;html=1;rounded=0;entryX=0.5;entryY=1;entryDx=0;entryDy=0;" edge="1" parent="1" source="ZCRnJ9vzYanFj2SS8UY6-36">
          <mxGeometry width="50" height="50" relative="1" as="geometry">
            <mxPoint x="839.52" y="640" as="sourcePoint" />
            <mxPoint x="839.52" y="230" as="targetPoint" />
          </mxGeometry>
        </mxCell>
        <mxCell id="ZCRnJ9vzYanFj2SS8UY6-31" value="" style="endArrow=none;dashed=1;html=1;rounded=0;entryX=0.5;entryY=1;entryDx=0;entryDy=0;" edge="1" parent="1" source="ZCRnJ9vzYanFj2SS8UY6-38">
          <mxGeometry width="50" height="50" relative="1" as="geometry">
            <mxPoint x="979.52" y="640" as="sourcePoint" />
            <mxPoint x="979.52" y="230" as="targetPoint" />
          </mxGeometry>
        </mxCell>
        <mxCell id="ZCRnJ9vzYanFj2SS8UY6-34" value="" style="endArrow=none;dashed=1;html=1;rounded=0;entryX=0.5;entryY=1;entryDx=0;entryDy=0;exitX=0.5;exitY=0;exitDx=0;exitDy=0;" edge="1" parent="1" source="ZCRnJ9vzYanFj2SS8UY6-60" target="ZCRnJ9vzYanFj2SS8UY6-33">
          <mxGeometry width="50" height="50" relative="1" as="geometry">
            <mxPoint x="550" y="570" as="sourcePoint" />
            <mxPoint x="549.68" y="230" as="targetPoint" />
            <Array as="points">
              <mxPoint x="550" y="500" />
            </Array>
          </mxGeometry>
        </mxCell>
        <mxCell id="ZCRnJ9vzYanFj2SS8UY6-42" style="edgeStyle=orthogonalEdgeStyle;rounded=0;orthogonalLoop=1;jettySize=auto;html=1;entryX=0;entryY=0.25;entryDx=0;entryDy=0;" edge="1" parent="1" source="ZCRnJ9vzYanFj2SS8UY6-33" target="ZCRnJ9vzYanFj2SS8UY6-38">
          <mxGeometry relative="1" as="geometry" />
        </mxCell>
        <mxCell id="ZCRnJ9vzYanFj2SS8UY6-33" value="" style="rounded=0;whiteSpace=wrap;html=1;" vertex="1" parent="1">
          <mxGeometry x="540" y="374" width="20" height="18.5" as="geometry" />
        </mxCell>
        <mxCell id="ZCRnJ9vzYanFj2SS8UY6-35" value="" style="rounded=0;whiteSpace=wrap;html=1;" vertex="1" parent="1">
          <mxGeometry x="690" y="410" width="20" height="20" as="geometry" />
        </mxCell>
        <mxCell id="ZCRnJ9vzYanFj2SS8UY6-37" value="" style="endArrow=none;dashed=1;html=1;rounded=0;entryX=0.5;entryY=1;entryDx=0;entryDy=0;" edge="1" parent="1" source="ZCRnJ9vzYanFj2SS8UY6-62" target="ZCRnJ9vzYanFj2SS8UY6-36">
          <mxGeometry width="50" height="50" relative="1" as="geometry">
            <mxPoint x="840" y="580" as="sourcePoint" />
            <mxPoint x="839.52" y="230" as="targetPoint" />
          </mxGeometry>
        </mxCell>
        <mxCell id="ZCRnJ9vzYanFj2SS8UY6-36" value="" style="rounded=0;whiteSpace=wrap;html=1;" vertex="1" parent="1">
          <mxGeometry x="830" y="460" width="20" height="55" as="geometry" />
        </mxCell>
        <mxCell id="ZCRnJ9vzYanFj2SS8UY6-39" value="" style="endArrow=none;dashed=1;html=1;rounded=0;entryX=0.5;entryY=1;entryDx=0;entryDy=0;exitX=0.5;exitY=0;exitDx=0;exitDy=0;" edge="1" parent="1" source="ZCRnJ9vzYanFj2SS8UY6-64" target="ZCRnJ9vzYanFj2SS8UY6-38">
          <mxGeometry width="50" height="50" relative="1" as="geometry">
            <mxPoint x="980" y="580" as="sourcePoint" />
            <mxPoint x="979.52" y="230" as="targetPoint" />
          </mxGeometry>
        </mxCell>
        <mxCell id="ZCRnJ9vzYanFj2SS8UY6-38" value="" style="rounded=0;whiteSpace=wrap;html=1;" vertex="1" parent="1">
          <mxGeometry x="970" y="340" width="20" height="173" as="geometry" />
        </mxCell>
        <mxCell id="ZCRnJ9vzYanFj2SS8UY6-43" style="edgeStyle=orthogonalEdgeStyle;rounded=0;orthogonalLoop=1;jettySize=auto;html=1;entryX=0;entryY=0.46;entryDx=0;entryDy=0;entryPerimeter=0;" edge="1" parent="1" source="ZCRnJ9vzYanFj2SS8UY6-35" target="ZCRnJ9vzYanFj2SS8UY6-38">
          <mxGeometry relative="1" as="geometry" />
        </mxCell>
        <mxCell id="ZCRnJ9vzYanFj2SS8UY6-44" style="edgeStyle=orthogonalEdgeStyle;rounded=0;orthogonalLoop=1;jettySize=auto;html=1;entryX=0.117;entryY=0.853;entryDx=0;entryDy=0;entryPerimeter=0;" edge="1" parent="1" source="ZCRnJ9vzYanFj2SS8UY6-36" target="ZCRnJ9vzYanFj2SS8UY6-38">
          <mxGeometry relative="1" as="geometry" />
        </mxCell>
        <mxCell id="ZCRnJ9vzYanFj2SS8UY6-48" style="edgeStyle=orthogonalEdgeStyle;rounded=0;orthogonalLoop=1;jettySize=auto;html=1;entryX=1.082;entryY=0.094;entryDx=0;entryDy=0;entryPerimeter=0;" edge="1" parent="1">
          <mxGeometry relative="1" as="geometry">
            <mxPoint x="1137" y="314.04" as="sourcePoint" />
            <mxPoint x="393.64" y="312.002" as="targetPoint" />
            <Array as="points">
              <mxPoint x="1137" y="312" />
            </Array>
          </mxGeometry>
        </mxCell>
        <mxCell id="ZCRnJ9vzYanFj2SS8UY6-49" style="edgeStyle=orthogonalEdgeStyle;rounded=0;orthogonalLoop=1;jettySize=auto;html=1;entryX=-0.022;entryY=0.552;entryDx=0;entryDy=0;entryPerimeter=0;" edge="1" parent="1" source="ZCRnJ9vzYanFj2SS8UY6-38" target="ZCRnJ9vzYanFj2SS8UY6-12">
          <mxGeometry relative="1" as="geometry" />
        </mxCell>
        <mxCell id="ZCRnJ9vzYanFj2SS8UY6-9" value="" style="rounded=0;whiteSpace=wrap;html=1;" vertex="1" parent="1">
          <mxGeometry x="372" y="297" width="20" height="223" as="geometry" />
        </mxCell>
        <mxCell id="ZCRnJ9vzYanFj2SS8UY6-54" style="edgeStyle=orthogonalEdgeStyle;rounded=0;orthogonalLoop=1;jettySize=auto;html=1;entryX=0;entryY=0.5;entryDx=0;entryDy=0;" edge="1" parent="1" source="ZCRnJ9vzYanFj2SS8UY6-7" target="ZCRnJ9vzYanFj2SS8UY6-36">
          <mxGeometry relative="1" as="geometry">
            <Array as="points">
              <mxPoint x="520" y="488" />
            </Array>
          </mxGeometry>
        </mxCell>
        <mxCell id="ZCRnJ9vzYanFj2SS8UY6-7" value="" style="rounded=0;whiteSpace=wrap;html=1;" vertex="1" parent="1">
          <mxGeometry x="190" y="297" width="20" height="223" as="geometry" />
        </mxCell>
        <mxCell id="ZCRnJ9vzYanFj2SS8UY6-28" value="" style="endArrow=none;dashed=1;html=1;rounded=0;entryX=0.5;entryY=1;entryDx=0;entryDy=0;" edge="1" parent="1" source="ZCRnJ9vzYanFj2SS8UY6-33">
          <mxGeometry width="50" height="50" relative="1" as="geometry">
            <mxPoint x="549.68" y="640" as="sourcePoint" />
            <mxPoint x="549.68" y="230" as="targetPoint" />
          </mxGeometry>
        </mxCell>
        <mxCell id="ZCRnJ9vzYanFj2SS8UY6-53" value="PAR" style="text;html=1;align=center;verticalAlign=middle;whiteSpace=wrap;rounded=0;" vertex="1" parent="1">
          <mxGeometry x="140" y="363" width="60" height="30" as="geometry" />
        </mxCell>
        <mxCell id="ZCRnJ9vzYanFj2SS8UY6-55" style="edgeStyle=orthogonalEdgeStyle;rounded=0;orthogonalLoop=1;jettySize=auto;html=1;entryX=1;entryY=0.148;entryDx=0;entryDy=0;entryPerimeter=0;" edge="1" parent="1">
          <mxGeometry relative="1" as="geometry">
            <mxPoint x="372" y="312.0322580645161" as="sourcePoint" />
            <mxPoint x="210" y="312.004" as="targetPoint" />
            <Array as="points">
              <mxPoint x="330" y="312" />
              <mxPoint x="330" y="312" />
            </Array>
          </mxGeometry>
        </mxCell>
        <mxCell id="ZCRnJ9vzYanFj2SS8UY6-60" value="X" style="text;html=1;align=center;verticalAlign=middle;whiteSpace=wrap;rounded=0;" vertex="1" parent="1">
          <mxGeometry x="540" y="590" width="20" height="10" as="geometry" />
        </mxCell>
        <mxCell id="ZCRnJ9vzYanFj2SS8UY6-61" value="X" style="text;html=1;align=center;verticalAlign=middle;whiteSpace=wrap;rounded=0;" vertex="1" parent="1">
          <mxGeometry x="690" y="592.5" width="20" height="5" as="geometry" />
        </mxCell>
        <mxCell id="ZCRnJ9vzYanFj2SS8UY6-62" value="X" style="text;html=1;align=center;verticalAlign=middle;whiteSpace=wrap;rounded=0;" vertex="1" parent="1">
          <mxGeometry x="830" y="590" width="20" height="10" as="geometry" />
        </mxCell>
        <mxCell id="ZCRnJ9vzYanFj2SS8UY6-64" value="X" style="text;html=1;align=center;verticalAlign=middle;whiteSpace=wrap;rounded=0;" vertex="1" parent="1">
          <mxGeometry x="970" y="590" width="20" height="5" as="geometry" />
        </mxCell>
        <mxCell id="ZCRnJ9vzYanFj2SS8UY6-65" value="" style="endArrow=none;dashed=1;html=1;rounded=0;exitX=-0.003;exitY=0.671;exitDx=0;exitDy=0;exitPerimeter=0;entryX=1;entryY=0.671;entryDx=0;entryDy=0;entryPerimeter=0;" edge="1" parent="1" source="ZCRnJ9vzYanFj2SS8UY6-4" target="ZCRnJ9vzYanFj2SS8UY6-4">
          <mxGeometry width="50" height="50" relative="1" as="geometry">
            <mxPoint x="500" y="550" as="sourcePoint" />
            <mxPoint x="550" y="500" as="targetPoint" />
          </mxGeometry>
        </mxCell>
        <mxCell id="ZCRnJ9vzYanFj2SS8UY6-77" style="edgeStyle=orthogonalEdgeStyle;rounded=0;orthogonalLoop=1;jettySize=auto;html=1;" edge="1" parent="1">
          <mxGeometry relative="1" as="geometry">
            <mxPoint x="1137" y="676" as="sourcePoint" />
            <mxPoint x="392" y="676" as="targetPoint" />
            <Array as="points">
              <mxPoint x="950" y="676" />
              <mxPoint x="950" y="676" />
            </Array>
          </mxGeometry>
        </mxCell>
        <mxCell id="ZCRnJ9vzYanFj2SS8UY6-66" value="" style="rounded=0;whiteSpace=wrap;html=1;" vertex="1" parent="1">
          <mxGeometry x="1137" y="620" width="20" height="70" as="geometry" />
        </mxCell>
        <mxCell id="ZCRnJ9vzYanFj2SS8UY6-67" value="X" style="text;html=1;align=center;verticalAlign=middle;whiteSpace=wrap;rounded=0;" vertex="1" parent="1">
          <mxGeometry x="372" y="735" width="20" height="10" as="geometry" />
        </mxCell>
        <mxCell id="ZCRnJ9vzYanFj2SS8UY6-68" value="X" style="text;html=1;align=center;verticalAlign=middle;whiteSpace=wrap;rounded=0;" vertex="1" parent="1">
          <mxGeometry x="190" y="740" width="20" height="10" as="geometry" />
        </mxCell>
        <mxCell id="ZCRnJ9vzYanFj2SS8UY6-70" value="" style="endArrow=none;dashed=1;html=1;rounded=0;entryX=0.5;entryY=1;entryDx=0;entryDy=0;exitX=0.5;exitY=0;exitDx=0;exitDy=0;" edge="1" parent="1" source="ZCRnJ9vzYanFj2SS8UY6-68" target="ZCRnJ9vzYanFj2SS8UY6-69">
          <mxGeometry width="50" height="50" relative="1" as="geometry">
            <mxPoint x="200" y="740" as="sourcePoint" />
            <mxPoint x="200" y="230" as="targetPoint" />
          </mxGeometry>
        </mxCell>
        <mxCell id="ZCRnJ9vzYanFj2SS8UY6-69" value="" style="rounded=0;whiteSpace=wrap;html=1;" vertex="1" parent="1">
          <mxGeometry x="190" y="620" width="20" height="93" as="geometry" />
        </mxCell>
        <mxCell id="ZCRnJ9vzYanFj2SS8UY6-71" value="X" style="text;html=1;align=center;verticalAlign=middle;whiteSpace=wrap;rounded=0;" vertex="1" parent="1">
          <mxGeometry x="1137" y="730" width="20" height="10" as="geometry" />
        </mxCell>
        <mxCell id="ZCRnJ9vzYanFj2SS8UY6-73" value="" style="endArrow=none;dashed=1;html=1;rounded=0;entryX=0.5;entryY=1;entryDx=0;entryDy=0;exitX=0.5;exitY=0;exitDx=0;exitDy=0;" edge="1" parent="1" source="ZCRnJ9vzYanFj2SS8UY6-67" target="ZCRnJ9vzYanFj2SS8UY6-72">
          <mxGeometry width="50" height="50" relative="1" as="geometry">
            <mxPoint x="382" y="735" as="sourcePoint" />
            <mxPoint x="382" y="230" as="targetPoint" />
          </mxGeometry>
        </mxCell>
        <mxCell id="ZCRnJ9vzYanFj2SS8UY6-76" style="edgeStyle=orthogonalEdgeStyle;rounded=0;orthogonalLoop=1;jettySize=auto;html=1;entryX=0.024;entryY=0.432;entryDx=0;entryDy=0;entryPerimeter=0;" edge="1" parent="1" source="ZCRnJ9vzYanFj2SS8UY6-72" target="ZCRnJ9vzYanFj2SS8UY6-66">
          <mxGeometry relative="1" as="geometry">
            <Array as="points">
              <mxPoint x="570" y="650" />
              <mxPoint x="570" y="650" />
            </Array>
          </mxGeometry>
        </mxCell>
        <mxCell id="ZCRnJ9vzYanFj2SS8UY6-78" style="edgeStyle=orthogonalEdgeStyle;rounded=0;orthogonalLoop=1;jettySize=auto;html=1;" edge="1" parent="1">
          <mxGeometry relative="1" as="geometry">
            <mxPoint x="372" y="690.5" as="sourcePoint" />
            <mxPoint x="210" y="690.5" as="targetPoint" />
          </mxGeometry>
        </mxCell>
        <mxCell id="ZCRnJ9vzYanFj2SS8UY6-72" value="" style="rounded=0;whiteSpace=wrap;html=1;" vertex="1" parent="1">
          <mxGeometry x="372" y="620" width="20" height="93" as="geometry" />
        </mxCell>
        <mxCell id="ZCRnJ9vzYanFj2SS8UY6-75" style="edgeStyle=orthogonalEdgeStyle;rounded=0;orthogonalLoop=1;jettySize=auto;html=1;entryX=0.029;entryY=0.112;entryDx=0;entryDy=0;entryPerimeter=0;" edge="1" parent="1" source="ZCRnJ9vzYanFj2SS8UY6-69" target="ZCRnJ9vzYanFj2SS8UY6-72">
          <mxGeometry relative="1" as="geometry">
            <Array as="points">
              <mxPoint x="291" y="630" />
            </Array>
          </mxGeometry>
        </mxCell>
        <mxCell id="ZCRnJ9vzYanFj2SS8UY6-80" value="1. Enter Credentials" style="text;html=1;align=center;verticalAlign=middle;whiteSpace=wrap;rounded=0;" vertex="1" parent="1">
          <mxGeometry x="230" y="608" width="110" height="30" as="geometry" />
        </mxCell>
        <mxCell id="ZCRnJ9vzYanFj2SS8UY6-81" value="1.1. Check Credentials" style="text;html=1;align=center;verticalAlign=middle;whiteSpace=wrap;rounded=0;" vertex="1" parent="1">
          <mxGeometry x="610" y="628" width="130" height="30" as="geometry" />
        </mxCell>
        <mxCell id="ZCRnJ9vzYanFj2SS8UY6-83" value="1.2. Response" style="text;html=1;align=center;verticalAlign=middle;whiteSpace=wrap;rounded=0;" vertex="1" parent="1">
          <mxGeometry x="610" y="654" width="130" height="30" as="geometry" />
        </mxCell>
        <mxCell id="ZCRnJ9vzYanFj2SS8UY6-84" value="1.3. Re-Login" style="text;html=1;align=center;verticalAlign=middle;whiteSpace=wrap;rounded=0;" vertex="1" parent="1">
          <mxGeometry x="237" y="669" width="110" height="30" as="geometry" />
        </mxCell>
        <mxCell id="ZCRnJ9vzYanFj2SS8UY6-85" value="2. View Attendance" style="text;html=1;align=center;verticalAlign=middle;whiteSpace=wrap;rounded=0;" vertex="1" parent="1">
          <mxGeometry x="410" y="360.5" width="110" height="30" as="geometry" />
        </mxCell>
        <mxCell id="ZCRnJ9vzYanFj2SS8UY6-86" value="3. View Subj&lt;span style=&quot;color: rgba(0, 0, 0, 0); font-family: monospace; font-size: 0px; text-align: start; text-wrap: nowrap;&quot;&gt;%3CmxGraphModel%3E%3Croot%3E%3CmxCell%20id%3D%220%22%2F%3E%3CmxCell%20id%3D%221%22%20parent%3D%220%22%2F%3E%3CmxCell%20id%3D%222%22%20value%3D%222.%20View%20Attendance%22%20style%3D%22text%3Bhtml%3D1%3Balign%3Dcenter%3BverticalAlign%3Dmiddle%3BwhiteSpace%3Dwrap%3Brounded%3D0%3B%22%20vertex%3D%221%22%20parent%3D%221%22%3E%3CmxGeometry%20x%3D%22240%22%20y%3D%22362.5%22%20width%3D%22110%22%20height%3D%2230%22%20as%3D%22geometry%22%2F%3E%3C%2FmxCell%3E%3C%2Froot%3E%3C%2FmxGraphModel%3E&lt;/span&gt;&lt;span style=&quot;color: rgba(0, 0, 0, 0); font-family: monospace; font-size: 0px; text-align: start; text-wrap: nowrap;&quot;&gt;%3CmxGraphModel%3E%3Croot%3E%3CmxCell%20id%3D%220%22%2F%3E%3CmxCell%20id%3D%221%22%20parent%3D%220%22%2F%3E%3CmxCell%20id%3D%222%22%20value%3D%222.%20View%20Attendance%22%20style%3D%22text%3Bhtml%3D1%3Balign%3Dcenter%3BverticalAlign%3Dmiddle%3BwhiteSpace%3Dwrap%3Brounded%3D0%3B%22%20vertex%3D%221%22%20parent%3D%221%22%3E%3CmxGeometry%20x%3D%22240%22%20y%3D%22362.5%22%20width%3D%22110%22%20height%3D%2230%22%20as%3D%22geometry%22%2F%3E%3C%2FmxCell%3E%3C%2Froot%3E%3C%2FmxGraphModel%3E&lt;/span&gt;&lt;span style=&quot;color: rgba(0, 0, 0, 0); font-family: monospace; font-size: 0px; text-align: start; text-wrap: nowrap;&quot;&gt;%3CmxGraphModel%3E%3Croot%3E%3CmxCell%20id%3D%220%22%2F%3E%3CmxCell%20id%3D%221%22%20parent%3D%220%22%2F%3E%3CmxCell%20id%3D%222%22%20value%3D%222.%20View%20Attendance%22%20style%3D%22text%3Bhtml%3D1%3Balign%3Dcenter%3BverticalAlign%3Dmiddle%3BwhiteSpace%3Dwrap%3Brounded%3D0%3B%22%20vertex%3D%221%22%20parent%3D%221%22%3E%3CmxGeometry%20x%3D%22240%22%20y%3D%22362.5%22%20width%3D%22110%22%20height%3D%2230%22%20as%3D%22geometry%22%2F%3E%3C%2FmxCell%3E%3C%2Froot%3E%3C%2FmxGraphModel%3E&lt;/span&gt;ect wise Attendance" style="text;html=1;align=center;verticalAlign=middle;whiteSpace=wrap;rounded=0;" vertex="1" parent="1">
          <mxGeometry x="570" y="390.5" width="110" height="30" as="geometry" />
        </mxCell>
        <mxCell id="ZCRnJ9vzYanFj2SS8UY6-87" value="5. View Defaulter&#39;s List&lt;span style=&quot;color: rgba(0, 0, 0, 0); font-family: monospace; font-size: 0px; text-align: start; text-wrap: nowrap;&quot;&gt;%3CmxGraphModel%3E%3Croot%3E%3CmxCell%20id%3D%220%22%2F%3E%3CmxCell%20id%3D%221%22%20parent%3D%220%22%2F%3E%3CmxCell%20id%3D%222%22%20value%3D%222.%20View%20Attendance%22%20style%3D%22text%3Bhtml%3D1%3Balign%3Dcenter%3BverticalAlign%3Dmiddle%3BwhiteSpace%3Dwrap%3Brounded%3D0%3B%22%20vertex%3D%221%22%20parent%3D%221%22%3E%3CmxGeometry%20x%3D%22240%22%20y%3D%22362.5%22%20width%3D%22110%22%20height%3D%2230%22%20as%3D%22geometry%22%2F%3E%3C%2FmxCell%3E%3C%2Froot%3E%3C%2FmxGraphModel%3E&lt;/span&gt;&lt;span style=&quot;color: rgba(0, 0, 0, 0); font-family: monospace; font-size: 0px; text-align: start; text-wrap: nowrap;&quot;&gt;%3CmxGraphModel%3E%3Croot%3E%3CmxCell%20id%3D%220%22%2F%3E%3CmxCell%20id%3D%221%22%20parent%3D%220%22%2F%3E%3CmxCell%20id%3D%222%22%20value%3D%222.%20View%20Attendance%22%20style%3D%22text%3Bhtml%3D1%3Balign%3Dcenter%3BverticalAlign%3Dmiddle%3BwhiteSpace%3Dwrap%3Brounded%3D0%3B%22%20vertex%3D%221%22%20parent%3D%221%22%3E%3CmxGeometry%20x%3D%22240%22%20y%3D%22362.5%22%20width%3D%22110%22%20height%3D%2230%22%20as%3D%22geometry%22%2F%3E%3C%2FmxCell%3E%3C%2Froot%3E%3C%2FmxGraphModel%3E&lt;/span&gt;&lt;span style=&quot;color: rgba(0, 0, 0, 0); font-family: monospace; font-size: 0px; text-align: start; text-wrap: nowrap;&quot;&gt;%3CmxGraphModel%3E%3Croot%3E%3CmxCell%20id%3D%220%22%2F%3E%3CmxCell%20id%3D%221%22%20parent%3D%220%22%2F%3E%3CmxCell%20id%3D%222%22%20value%3D%222.%20View%20Attendance%22%20style%3D%22text%3Bhtml%3D1%3Balign%3Dcenter%3BverticalAlign%3Dmiddle%3BwhiteSpace%3Dwrap%3Brounded%3D0%3B%22%20vertex%3D%221%22%20parent%3D%221%22%3E%3CmxGeometry%20x%3D%22240%22%20y%3D%22362.5%22%20width%3D%22110%22%20height%3D%2230%22%20as%3D%22geometry%22%2F%3E%3C%2FmxCell%3E%3C%2Froot%3E%3C%&lt;/span&gt;" style="text;html=1;align=center;verticalAlign=middle;whiteSpace=wrap;rounded=0;" vertex="1" parent="1">
          <mxGeometry x="710" y="460" width="110" height="30" as="geometry" />
        </mxCell>
        <mxCell id="ZCRnJ9vzYanFj2SS8UY6-88" value="6. Raise Complaint" style="text;html=1;align=center;verticalAlign=middle;whiteSpace=wrap;rounded=0;" vertex="1" parent="1">
          <mxGeometry x="856" y="460" width="110" height="30" as="geometry" />
        </mxCell>
        <mxCell id="ZCRnJ9vzYanFj2SS8UY6-89" value="6. Raise Complaint" style="text;html=1;align=center;verticalAlign=middle;whiteSpace=wrap;rounded=0;" vertex="1" parent="1">
          <mxGeometry x="850" y="360.5" width="110" height="30" as="geometry" />
        </mxCell>
        <mxCell id="ZCRnJ9vzYanFj2SS8UY6-90" value="6. Raise Complaint" style="text;html=1;align=center;verticalAlign=middle;whiteSpace=wrap;rounded=0;" vertex="1" parent="1">
          <mxGeometry x="850" y="399" width="110" height="30" as="geometry" />
        </mxCell>
        <mxCell id="ZCRnJ9vzYanFj2SS8UY6-91" value="7. Store it in DB" style="text;html=1;align=center;verticalAlign=middle;whiteSpace=wrap;rounded=0;" vertex="1" parent="1">
          <mxGeometry x="1000" y="400" width="110" height="30" as="geometry" />
        </mxCell>
        <mxCell id="ZCRnJ9vzYanFj2SS8UY6-92" value="" style="rounded=0;whiteSpace=wrap;html=1;strokeWidth=2;" vertex="1" parent="1">
          <mxGeometry x="91" y="953" width="1200" height="530" as="geometry" />
        </mxCell>
        <mxCell id="ZCRnJ9vzYanFj2SS8UY6-93" value="" style="rounded=0;whiteSpace=wrap;html=1;fontStyle=1;strokeWidth=2;" vertex="1" parent="1">
          <mxGeometry x="161" y="1063" width="1040" height="186.75" as="geometry" />
        </mxCell>
        <mxCell id="ZCRnJ9vzYanFj2SS8UY6-94" value="Teaching Staff" style="rounded=0;whiteSpace=wrap;html=1;" vertex="1" parent="1">
          <mxGeometry x="151" y="890" width="120" height="40" as="geometry" />
        </mxCell>
        <mxCell id="ZCRnJ9vzYanFj2SS8UY6-95" value="Application" style="rounded=0;whiteSpace=wrap;html=1;" vertex="1" parent="1">
          <mxGeometry x="333" y="890" width="120" height="40" as="geometry" />
        </mxCell>
        <mxCell id="ZCRnJ9vzYanFj2SS8UY6-96" value="Database" style="rounded=0;whiteSpace=wrap;html=1;" vertex="1" parent="1">
          <mxGeometry x="1098" y="890" width="120" height="40" as="geometry" />
        </mxCell>
        <mxCell id="ZCRnJ9vzYanFj2SS8UY6-97" value="" style="endArrow=none;dashed=1;html=1;rounded=0;entryX=0.5;entryY=1;entryDx=0;entryDy=0;exitX=0.5;exitY=0;exitDx=0;exitDy=0;" edge="1" parent="1" source="ZCRnJ9vzYanFj2SS8UY6-146" target="ZCRnJ9vzYanFj2SS8UY6-94">
          <mxGeometry width="50" height="50" relative="1" as="geometry">
            <mxPoint x="211" y="1290" as="sourcePoint" />
            <mxPoint x="201" y="1010" as="targetPoint" />
          </mxGeometry>
        </mxCell>
        <mxCell id="ZCRnJ9vzYanFj2SS8UY6-100" value="" style="endArrow=none;dashed=1;html=1;rounded=0;entryX=0.5;entryY=1;entryDx=0;entryDy=0;exitX=0.5;exitY=0;exitDx=0;exitDy=0;" edge="1" parent="1" source="ZCRnJ9vzYanFj2SS8UY6-151">
          <mxGeometry width="50" height="50" relative="1" as="geometry">
            <mxPoint x="393" y="1290" as="sourcePoint" />
            <mxPoint x="393" y="930" as="targetPoint" />
          </mxGeometry>
        </mxCell>
        <mxCell id="ZCRnJ9vzYanFj2SS8UY6-101" value="" style="endArrow=classic;html=1;rounded=0;exitX=1;exitY=0;exitDx=0;exitDy=0;entryX=0;entryY=0;entryDx=0;entryDy=0;" edge="1" parent="1" source="ZCRnJ9vzYanFj2SS8UY6-132" target="ZCRnJ9vzYanFj2SS8UY6-130">
          <mxGeometry width="50" height="50" relative="1" as="geometry">
            <mxPoint x="431" y="1150" as="sourcePoint" />
            <mxPoint x="481" y="1100" as="targetPoint" />
          </mxGeometry>
        </mxCell>
        <mxCell id="ZCRnJ9vzYanFj2SS8UY6-102" value="" style="endArrow=none;dashed=1;html=1;rounded=0;entryX=0.5;entryY=1;entryDx=0;entryDy=0;exitX=0.5;exitY=0;exitDx=0;exitDy=0;" edge="1" parent="1" source="ZCRnJ9vzYanFj2SS8UY6-147">
          <mxGeometry width="50" height="50" relative="1" as="geometry">
            <mxPoint x="1158" y="1340" as="sourcePoint" />
            <mxPoint x="1158" y="930" as="targetPoint" />
          </mxGeometry>
        </mxCell>
        <mxCell id="ZCRnJ9vzYanFj2SS8UY6-103" value="" style="rounded=0;whiteSpace=wrap;html=1;" vertex="1" parent="1">
          <mxGeometry x="1148" y="997" width="20" height="233" as="geometry" />
        </mxCell>
        <mxCell id="ZCRnJ9vzYanFj2SS8UY6-104" value="1. Enter Credentials" style="text;html=1;align=center;verticalAlign=middle;whiteSpace=wrap;rounded=0;" vertex="1" parent="1">
          <mxGeometry x="251" y="970" width="110" height="30" as="geometry" />
        </mxCell>
        <mxCell id="ZCRnJ9vzYanFj2SS8UY6-105" value="" style="endArrow=classic;html=1;rounded=0;entryX=0;entryY=0;entryDx=0;entryDy=0;exitX=1;exitY=0;exitDx=0;exitDy=0;" edge="1" parent="1" source="ZCRnJ9vzYanFj2SS8UY6-130" target="ZCRnJ9vzYanFj2SS8UY6-103">
          <mxGeometry width="50" height="50" relative="1" as="geometry">
            <mxPoint x="531" y="1000" as="sourcePoint" />
            <mxPoint x="731" y="1000" as="targetPoint" />
          </mxGeometry>
        </mxCell>
        <mxCell id="ZCRnJ9vzYanFj2SS8UY6-106" value="1.1. Check Credentials" style="text;html=1;align=center;verticalAlign=middle;whiteSpace=wrap;rounded=0;" vertex="1" parent="1">
          <mxGeometry x="561" y="970" width="130" height="30" as="geometry" />
        </mxCell>
        <mxCell id="ZCRnJ9vzYanFj2SS8UY6-107" value="1.2. Response" style="text;html=1;align=center;verticalAlign=middle;whiteSpace=wrap;rounded=0;" vertex="1" parent="1">
          <mxGeometry x="561" y="1012" width="130" height="30" as="geometry" />
        </mxCell>
        <mxCell id="ZCRnJ9vzYanFj2SS8UY6-108" value="ALT" style="text;html=1;align=center;verticalAlign=middle;whiteSpace=wrap;rounded=0;" vertex="1" parent="1">
          <mxGeometry x="81" y="950" width="60" height="30" as="geometry" />
        </mxCell>
        <mxCell id="ZCRnJ9vzYanFj2SS8UY6-109" value="[ CORRECT CREDENTIALS ]" style="text;html=1;align=center;verticalAlign=middle;whiteSpace=wrap;rounded=0;" vertex="1" parent="1">
          <mxGeometry x="218" y="950" width="170" height="30" as="geometry" />
        </mxCell>
        <mxCell id="ZCRnJ9vzYanFj2SS8UY6-110" value="View Student&#39;s Attendance" style="rounded=0;whiteSpace=wrap;html=1;" vertex="1" parent="1">
          <mxGeometry x="501" y="890" width="120" height="40" as="geometry" />
        </mxCell>
        <mxCell id="ZCRnJ9vzYanFj2SS8UY6-111" value="View Student&#39;s Subject wise Attendance" style="rounded=0;whiteSpace=wrap;html=1;" vertex="1" parent="1">
          <mxGeometry x="641" y="890" width="140" height="40" as="geometry" />
        </mxCell>
        <mxCell id="ZCRnJ9vzYanFj2SS8UY6-112" value="View Deafulter&#39;s List" style="rounded=0;whiteSpace=wrap;html=1;" vertex="1" parent="1">
          <mxGeometry x="791" y="890" width="120" height="40" as="geometry" />
        </mxCell>
        <mxCell id="ZCRnJ9vzYanFj2SS8UY6-114" value="1.3. Successful Login" style="text;html=1;align=center;verticalAlign=middle;whiteSpace=wrap;rounded=0;" vertex="1" parent="1">
          <mxGeometry x="251" y="1018" width="110" height="30" as="geometry" />
        </mxCell>
        <mxCell id="ZCRnJ9vzYanFj2SS8UY6-115" value="" style="endArrow=none;dashed=1;html=1;rounded=0;entryX=0.5;entryY=1;entryDx=0;entryDy=0;exitX=0.5;exitY=0;exitDx=0;exitDy=0;" edge="1" parent="1" source="ZCRnJ9vzYanFj2SS8UY6-137">
          <mxGeometry width="50" height="50" relative="1" as="geometry">
            <mxPoint x="711" y="1280" as="sourcePoint" />
            <mxPoint x="710.68" y="930" as="targetPoint" />
          </mxGeometry>
        </mxCell>
        <mxCell id="ZCRnJ9vzYanFj2SS8UY6-116" value="" style="endArrow=none;dashed=1;html=1;rounded=0;entryX=0.5;entryY=1;entryDx=0;entryDy=0;" edge="1" parent="1" source="ZCRnJ9vzYanFj2SS8UY6-123">
          <mxGeometry width="50" height="50" relative="1" as="geometry">
            <mxPoint x="850.52" y="1340" as="sourcePoint" />
            <mxPoint x="850.52" y="930" as="targetPoint" />
          </mxGeometry>
        </mxCell>
        <mxCell id="ZCRnJ9vzYanFj2SS8UY6-118" value="" style="endArrow=none;dashed=1;html=1;rounded=0;entryX=0.5;entryY=1;entryDx=0;entryDy=0;exitX=0.5;exitY=0;exitDx=0;exitDy=0;" edge="1" parent="1" source="ZCRnJ9vzYanFj2SS8UY6-136" target="ZCRnJ9vzYanFj2SS8UY6-120">
          <mxGeometry width="50" height="50" relative="1" as="geometry">
            <mxPoint x="561" y="1270" as="sourcePoint" />
            <mxPoint x="560.68" y="930" as="targetPoint" />
            <Array as="points">
              <mxPoint x="561" y="1200" />
            </Array>
          </mxGeometry>
        </mxCell>
        <mxCell id="ZCRnJ9vzYanFj2SS8UY6-120" value="" style="rounded=0;whiteSpace=wrap;html=1;" vertex="1" parent="1">
          <mxGeometry x="551" y="1074" width="20" height="18.5" as="geometry" />
        </mxCell>
        <mxCell id="ZCRnJ9vzYanFj2SS8UY6-121" value="" style="rounded=0;whiteSpace=wrap;html=1;" vertex="1" parent="1">
          <mxGeometry x="701" y="1110" width="20" height="20" as="geometry" />
        </mxCell>
        <mxCell id="ZCRnJ9vzYanFj2SS8UY6-122" value="" style="endArrow=none;dashed=1;html=1;rounded=0;entryX=0.5;entryY=1;entryDx=0;entryDy=0;" edge="1" parent="1" source="ZCRnJ9vzYanFj2SS8UY6-138" target="ZCRnJ9vzYanFj2SS8UY6-123">
          <mxGeometry width="50" height="50" relative="1" as="geometry">
            <mxPoint x="851" y="1280" as="sourcePoint" />
            <mxPoint x="850.52" y="930" as="targetPoint" />
          </mxGeometry>
        </mxCell>
        <mxCell id="ZCRnJ9vzYanFj2SS8UY6-123" value="" style="rounded=0;whiteSpace=wrap;html=1;" vertex="1" parent="1">
          <mxGeometry x="841" y="1137" width="20" height="55" as="geometry" />
        </mxCell>
        <mxCell id="ZCRnJ9vzYanFj2SS8UY6-128" style="edgeStyle=orthogonalEdgeStyle;rounded=0;orthogonalLoop=1;jettySize=auto;html=1;entryX=1.082;entryY=0.094;entryDx=0;entryDy=0;entryPerimeter=0;" edge="1" parent="1">
          <mxGeometry relative="1" as="geometry">
            <mxPoint x="1148" y="1014.04" as="sourcePoint" />
            <mxPoint x="404.64" y="1012.002" as="targetPoint" />
            <Array as="points">
              <mxPoint x="1148" y="1012" />
            </Array>
          </mxGeometry>
        </mxCell>
        <mxCell id="ZCRnJ9vzYanFj2SS8UY6-130" value="" style="rounded=0;whiteSpace=wrap;html=1;" vertex="1" parent="1">
          <mxGeometry x="383" y="997" width="20" height="233" as="geometry" />
        </mxCell>
        <mxCell id="ZCRnJ9vzYanFj2SS8UY6-131" style="edgeStyle=orthogonalEdgeStyle;rounded=0;orthogonalLoop=1;jettySize=auto;html=1;entryX=0;entryY=0.5;entryDx=0;entryDy=0;" edge="1" parent="1" target="ZCRnJ9vzYanFj2SS8UY6-123">
          <mxGeometry relative="1" as="geometry">
            <Array as="points">
              <mxPoint x="531" y="1165" />
            </Array>
            <mxPoint x="220.99999999999977" y="1164.4705882352944" as="sourcePoint" />
          </mxGeometry>
        </mxCell>
        <mxCell id="ZCRnJ9vzYanFj2SS8UY6-167" style="edgeStyle=orthogonalEdgeStyle;rounded=0;orthogonalLoop=1;jettySize=auto;html=1;entryX=0;entryY=0.5;entryDx=0;entryDy=0;" edge="1" parent="1" source="ZCRnJ9vzYanFj2SS8UY6-132" target="ZCRnJ9vzYanFj2SS8UY6-166">
          <mxGeometry relative="1" as="geometry">
            <Array as="points">
              <mxPoint x="411" y="1207" />
              <mxPoint x="411" y="1207" />
            </Array>
          </mxGeometry>
        </mxCell>
        <mxCell id="ZCRnJ9vzYanFj2SS8UY6-132" value="" style="rounded=0;whiteSpace=wrap;html=1;" vertex="1" parent="1">
          <mxGeometry x="201" y="997" width="20" height="233" as="geometry" />
        </mxCell>
        <mxCell id="ZCRnJ9vzYanFj2SS8UY6-133" value="" style="endArrow=none;dashed=1;html=1;rounded=0;entryX=0.5;entryY=1;entryDx=0;entryDy=0;" edge="1" parent="1" source="ZCRnJ9vzYanFj2SS8UY6-120">
          <mxGeometry width="50" height="50" relative="1" as="geometry">
            <mxPoint x="560.68" y="1340" as="sourcePoint" />
            <mxPoint x="560.68" y="930" as="targetPoint" />
          </mxGeometry>
        </mxCell>
        <mxCell id="ZCRnJ9vzYanFj2SS8UY6-134" value="PAR" style="text;html=1;align=center;verticalAlign=middle;whiteSpace=wrap;rounded=0;" vertex="1" parent="1">
          <mxGeometry x="151" y="1063" width="60" height="30" as="geometry" />
        </mxCell>
        <mxCell id="ZCRnJ9vzYanFj2SS8UY6-135" style="edgeStyle=orthogonalEdgeStyle;rounded=0;orthogonalLoop=1;jettySize=auto;html=1;entryX=1;entryY=0.148;entryDx=0;entryDy=0;entryPerimeter=0;" edge="1" parent="1">
          <mxGeometry relative="1" as="geometry">
            <mxPoint x="383" y="1012.0322580645161" as="sourcePoint" />
            <mxPoint x="221" y="1012.004" as="targetPoint" />
            <Array as="points">
              <mxPoint x="341" y="1012" />
              <mxPoint x="341" y="1012" />
            </Array>
          </mxGeometry>
        </mxCell>
        <mxCell id="ZCRnJ9vzYanFj2SS8UY6-136" value="X" style="text;html=1;align=center;verticalAlign=middle;whiteSpace=wrap;rounded=0;" vertex="1" parent="1">
          <mxGeometry x="551" y="1290" width="20" height="10" as="geometry" />
        </mxCell>
        <mxCell id="ZCRnJ9vzYanFj2SS8UY6-137" value="X" style="text;html=1;align=center;verticalAlign=middle;whiteSpace=wrap;rounded=0;" vertex="1" parent="1">
          <mxGeometry x="701" y="1292.5" width="20" height="5" as="geometry" />
        </mxCell>
        <mxCell id="ZCRnJ9vzYanFj2SS8UY6-138" value="X" style="text;html=1;align=center;verticalAlign=middle;whiteSpace=wrap;rounded=0;" vertex="1" parent="1">
          <mxGeometry x="841" y="1290" width="20" height="10" as="geometry" />
        </mxCell>
        <mxCell id="ZCRnJ9vzYanFj2SS8UY6-140" value="" style="endArrow=none;dashed=1;html=1;rounded=0;exitX=-0.003;exitY=0.671;exitDx=0;exitDy=0;exitPerimeter=0;entryX=1;entryY=0.671;entryDx=0;entryDy=0;entryPerimeter=0;" edge="1" parent="1" source="ZCRnJ9vzYanFj2SS8UY6-92" target="ZCRnJ9vzYanFj2SS8UY6-92">
          <mxGeometry width="50" height="50" relative="1" as="geometry">
            <mxPoint x="511" y="1250" as="sourcePoint" />
            <mxPoint x="561" y="1200" as="targetPoint" />
          </mxGeometry>
        </mxCell>
        <mxCell id="ZCRnJ9vzYanFj2SS8UY6-141" style="edgeStyle=orthogonalEdgeStyle;rounded=0;orthogonalLoop=1;jettySize=auto;html=1;" edge="1" parent="1">
          <mxGeometry relative="1" as="geometry">
            <mxPoint x="1148" y="1376" as="sourcePoint" />
            <mxPoint x="403" y="1376" as="targetPoint" />
            <Array as="points">
              <mxPoint x="961" y="1376" />
              <mxPoint x="961" y="1376" />
            </Array>
          </mxGeometry>
        </mxCell>
        <mxCell id="ZCRnJ9vzYanFj2SS8UY6-142" value="" style="rounded=0;whiteSpace=wrap;html=1;" vertex="1" parent="1">
          <mxGeometry x="1148" y="1320" width="20" height="70" as="geometry" />
        </mxCell>
        <mxCell id="ZCRnJ9vzYanFj2SS8UY6-143" value="X" style="text;html=1;align=center;verticalAlign=middle;whiteSpace=wrap;rounded=0;" vertex="1" parent="1">
          <mxGeometry x="383" y="1435" width="20" height="10" as="geometry" />
        </mxCell>
        <mxCell id="ZCRnJ9vzYanFj2SS8UY6-144" value="X" style="text;html=1;align=center;verticalAlign=middle;whiteSpace=wrap;rounded=0;" vertex="1" parent="1">
          <mxGeometry x="201" y="1440" width="20" height="10" as="geometry" />
        </mxCell>
        <mxCell id="ZCRnJ9vzYanFj2SS8UY6-145" value="" style="endArrow=none;dashed=1;html=1;rounded=0;entryX=0.5;entryY=1;entryDx=0;entryDy=0;exitX=0.5;exitY=0;exitDx=0;exitDy=0;" edge="1" parent="1" source="ZCRnJ9vzYanFj2SS8UY6-144" target="ZCRnJ9vzYanFj2SS8UY6-146">
          <mxGeometry width="50" height="50" relative="1" as="geometry">
            <mxPoint x="211" y="1440" as="sourcePoint" />
            <mxPoint x="211" y="930" as="targetPoint" />
          </mxGeometry>
        </mxCell>
        <mxCell id="ZCRnJ9vzYanFj2SS8UY6-146" value="" style="rounded=0;whiteSpace=wrap;html=1;" vertex="1" parent="1">
          <mxGeometry x="201" y="1320" width="20" height="93" as="geometry" />
        </mxCell>
        <mxCell id="ZCRnJ9vzYanFj2SS8UY6-147" value="X" style="text;html=1;align=center;verticalAlign=middle;whiteSpace=wrap;rounded=0;" vertex="1" parent="1">
          <mxGeometry x="1148" y="1430" width="20" height="10" as="geometry" />
        </mxCell>
        <mxCell id="ZCRnJ9vzYanFj2SS8UY6-148" value="" style="endArrow=none;dashed=1;html=1;rounded=0;entryX=0.5;entryY=1;entryDx=0;entryDy=0;exitX=0.5;exitY=0;exitDx=0;exitDy=0;" edge="1" parent="1" source="ZCRnJ9vzYanFj2SS8UY6-143" target="ZCRnJ9vzYanFj2SS8UY6-151">
          <mxGeometry width="50" height="50" relative="1" as="geometry">
            <mxPoint x="393" y="1435" as="sourcePoint" />
            <mxPoint x="393" y="930" as="targetPoint" />
          </mxGeometry>
        </mxCell>
        <mxCell id="ZCRnJ9vzYanFj2SS8UY6-149" style="edgeStyle=orthogonalEdgeStyle;rounded=0;orthogonalLoop=1;jettySize=auto;html=1;entryX=0.024;entryY=0.432;entryDx=0;entryDy=0;entryPerimeter=0;" edge="1" parent="1" source="ZCRnJ9vzYanFj2SS8UY6-151" target="ZCRnJ9vzYanFj2SS8UY6-142">
          <mxGeometry relative="1" as="geometry">
            <Array as="points">
              <mxPoint x="581" y="1350" />
              <mxPoint x="581" y="1350" />
            </Array>
          </mxGeometry>
        </mxCell>
        <mxCell id="ZCRnJ9vzYanFj2SS8UY6-150" style="edgeStyle=orthogonalEdgeStyle;rounded=0;orthogonalLoop=1;jettySize=auto;html=1;" edge="1" parent="1">
          <mxGeometry relative="1" as="geometry">
            <mxPoint x="383" y="1390.5" as="sourcePoint" />
            <mxPoint x="221" y="1390.5" as="targetPoint" />
          </mxGeometry>
        </mxCell>
        <mxCell id="ZCRnJ9vzYanFj2SS8UY6-151" value="" style="rounded=0;whiteSpace=wrap;html=1;" vertex="1" parent="1">
          <mxGeometry x="383" y="1320" width="20" height="93" as="geometry" />
        </mxCell>
        <mxCell id="ZCRnJ9vzYanFj2SS8UY6-152" style="edgeStyle=orthogonalEdgeStyle;rounded=0;orthogonalLoop=1;jettySize=auto;html=1;entryX=0.029;entryY=0.112;entryDx=0;entryDy=0;entryPerimeter=0;" edge="1" parent="1" source="ZCRnJ9vzYanFj2SS8UY6-146" target="ZCRnJ9vzYanFj2SS8UY6-151">
          <mxGeometry relative="1" as="geometry">
            <Array as="points">
              <mxPoint x="302" y="1330" />
            </Array>
          </mxGeometry>
        </mxCell>
        <mxCell id="ZCRnJ9vzYanFj2SS8UY6-153" value="1. Enter Credentials" style="text;html=1;align=center;verticalAlign=middle;whiteSpace=wrap;rounded=0;" vertex="1" parent="1">
          <mxGeometry x="241" y="1308" width="110" height="30" as="geometry" />
        </mxCell>
        <mxCell id="ZCRnJ9vzYanFj2SS8UY6-154" value="1.1. Check Credentials" style="text;html=1;align=center;verticalAlign=middle;whiteSpace=wrap;rounded=0;" vertex="1" parent="1">
          <mxGeometry x="621" y="1328" width="130" height="30" as="geometry" />
        </mxCell>
        <mxCell id="ZCRnJ9vzYanFj2SS8UY6-155" value="1.2. Response" style="text;html=1;align=center;verticalAlign=middle;whiteSpace=wrap;rounded=0;" vertex="1" parent="1">
          <mxGeometry x="621" y="1354" width="130" height="30" as="geometry" />
        </mxCell>
        <mxCell id="ZCRnJ9vzYanFj2SS8UY6-156" value="1.3. Re-Login" style="text;html=1;align=center;verticalAlign=middle;whiteSpace=wrap;rounded=0;" vertex="1" parent="1">
          <mxGeometry x="248" y="1369" width="110" height="30" as="geometry" />
        </mxCell>
        <mxCell id="ZCRnJ9vzYanFj2SS8UY6-157" value="2. View Attendance" style="text;html=1;align=center;verticalAlign=middle;whiteSpace=wrap;rounded=0;" vertex="1" parent="1">
          <mxGeometry x="421" y="1060.5" width="110" height="30" as="geometry" />
        </mxCell>
        <mxCell id="ZCRnJ9vzYanFj2SS8UY6-158" value="3. View Subj&lt;span style=&quot;color: rgba(0, 0, 0, 0); font-family: monospace; font-size: 0px; text-align: start; text-wrap: nowrap;&quot;&gt;%3CmxGraphModel%3E%3Croot%3E%3CmxCell%20id%3D%220%22%2F%3E%3CmxCell%20id%3D%221%22%20parent%3D%220%22%2F%3E%3CmxCell%20id%3D%222%22%20value%3D%222.%20View%20Attendance%22%20style%3D%22text%3Bhtml%3D1%3Balign%3Dcenter%3BverticalAlign%3Dmiddle%3BwhiteSpace%3Dwrap%3Brounded%3D0%3B%22%20vertex%3D%221%22%20parent%3D%221%22%3E%3CmxGeometry%20x%3D%22240%22%20y%3D%22362.5%22%20width%3D%22110%22%20height%3D%2230%22%20as%3D%22geometry%22%2F%3E%3C%2FmxCell%3E%3C%2Froot%3E%3C%2FmxGraphModel%3E&lt;/span&gt;&lt;span style=&quot;color: rgba(0, 0, 0, 0); font-family: monospace; font-size: 0px; text-align: start; text-wrap: nowrap;&quot;&gt;%3CmxGraphModel%3E%3Croot%3E%3CmxCell%20id%3D%220%22%2F%3E%3CmxCell%20id%3D%221%22%20parent%3D%220%22%2F%3E%3CmxCell%20id%3D%222%22%20value%3D%222.%20View%20Attendance%22%20style%3D%22text%3Bhtml%3D1%3Balign%3Dcenter%3BverticalAlign%3Dmiddle%3BwhiteSpace%3Dwrap%3Brounded%3D0%3B%22%20vertex%3D%221%22%20parent%3D%221%22%3E%3CmxGeometry%20x%3D%22240%22%20y%3D%22362.5%22%20width%3D%22110%22%20height%3D%2230%22%20as%3D%22geometry%22%2F%3E%3C%2FmxCell%3E%3C%2Froot%3E%3C%2FmxGraphModel%3E&lt;/span&gt;&lt;span style=&quot;color: rgba(0, 0, 0, 0); font-family: monospace; font-size: 0px; text-align: start; text-wrap: nowrap;&quot;&gt;%3CmxGraphModel%3E%3Croot%3E%3CmxCell%20id%3D%220%22%2F%3E%3CmxCell%20id%3D%221%22%20parent%3D%220%22%2F%3E%3CmxCell%20id%3D%222%22%20value%3D%222.%20View%20Attendance%22%20style%3D%22text%3Bhtml%3D1%3Balign%3Dcenter%3BverticalAlign%3Dmiddle%3BwhiteSpace%3Dwrap%3Brounded%3D0%3B%22%20vertex%3D%221%22%20parent%3D%221%22%3E%3CmxGeometry%20x%3D%22240%22%20y%3D%22362.5%22%20width%3D%22110%22%20height%3D%2230%22%20as%3D%22geometry%22%2F%3E%3C%2FmxCell%3E%3C%2Froot%3E%3C%2FmxGraphModel%3E&lt;/span&gt;ect wise Attendance" style="text;html=1;align=center;verticalAlign=middle;whiteSpace=wrap;rounded=0;" vertex="1" parent="1">
          <mxGeometry x="581" y="1090.5" width="110" height="30" as="geometry" />
        </mxCell>
        <mxCell id="ZCRnJ9vzYanFj2SS8UY6-159" value="5. View Defaulter&#39;s List&lt;span style=&quot;color: rgba(0, 0, 0, 0); font-family: monospace; font-size: 0px; text-align: start; text-wrap: nowrap;&quot;&gt;%3CmxGraphModel%3E%3Croot%3E%3CmxCell%20id%3D%220%22%2F%3E%3CmxCell%20id%3D%221%22%20parent%3D%220%22%2F%3E%3CmxCell%20id%3D%222%22%20value%3D%222.%20View%20Attendance%22%20style%3D%22text%3Bhtml%3D1%3Balign%3Dcenter%3BverticalAlign%3Dmiddle%3BwhiteSpace%3Dwrap%3Brounded%3D0%3B%22%20vertex%3D%221%22%20parent%3D%221%22%3E%3CmxGeometry%20x%3D%22240%22%20y%3D%22362.5%22%20width%3D%22110%22%20height%3D%2230%22%20as%3D%22geometry%22%2F%3E%3C%2FmxCell%3E%3C%2Froot%3E%3C%2FmxGraphModel%3E&lt;/span&gt;&lt;span style=&quot;color: rgba(0, 0, 0, 0); font-family: monospace; font-size: 0px; text-align: start; text-wrap: nowrap;&quot;&gt;%3CmxGraphModel%3E%3Croot%3E%3CmxCell%20id%3D%220%22%2F%3E%3CmxCell%20id%3D%221%22%20parent%3D%220%22%2F%3E%3CmxCell%20id%3D%222%22%20value%3D%222.%20View%20Attendance%22%20style%3D%22text%3Bhtml%3D1%3Balign%3Dcenter%3BverticalAlign%3Dmiddle%3BwhiteSpace%3Dwrap%3Brounded%3D0%3B%22%20vertex%3D%221%22%20parent%3D%221%22%3E%3CmxGeometry%20x%3D%22240%22%20y%3D%22362.5%22%20width%3D%22110%22%20height%3D%2230%22%20as%3D%22geometry%22%2F%3E%3C%2FmxCell%3E%3C%2Froot%3E%3C%2FmxGraphModel%3E&lt;/span&gt;&lt;span style=&quot;color: rgba(0, 0, 0, 0); font-family: monospace; font-size: 0px; text-align: start; text-wrap: nowrap;&quot;&gt;%3CmxGraphModel%3E%3Croot%3E%3CmxCell%20id%3D%220%22%2F%3E%3CmxCell%20id%3D%221%22%20parent%3D%220%22%2F%3E%3CmxCell%20id%3D%222%22%20value%3D%222.%20View%20Attendance%22%20style%3D%22text%3Bhtml%3D1%3Balign%3Dcenter%3BverticalAlign%3Dmiddle%3BwhiteSpace%3Dwrap%3Brounded%3D0%3B%22%20vertex%3D%221%22%20parent%3D%221%22%3E%3CmxGeometry%20x%3D%22240%22%20y%3D%22362.5%22%20width%3D%22110%22%20height%3D%2230%22%20as%3D%22geometry%22%2F%3E%3C%2FmxCell%3E%3C%2Froot%3E%3C%&lt;/span&gt;" style="text;html=1;align=center;verticalAlign=middle;whiteSpace=wrap;rounded=0;" vertex="1" parent="1">
          <mxGeometry x="721" y="1137" width="110" height="30" as="geometry" />
        </mxCell>
        <mxCell id="ZCRnJ9vzYanFj2SS8UY6-164" value="Mark Studetn&#39;s Atte&lt;span style=&quot;text-wrap: nowrap; color: rgba(0, 0, 0, 0); font-family: monospace; font-size: 0px; text-align: start;&quot;&gt;%3CmxGraphModel%3E%3Croot%3E%3CmxCell%20id%3D%220%22%2F%3E%3CmxCell%20id%3D%221%22%20parent%3D%220%22%2F%3E%3CmxCell%20id%3D%222%22%20value%3D%225.%20View%20Defaulter&#39;s%20List%26lt%3Bspan%20style%3D%26quot%3Bcolor%3A%20rgba(0%2C%200%2C%200%2C%200)%3B%20font-family%3A%20monospace%3B%20font-size%3A%200px%3B%20text-align%3A%20start%3B%20text-wrap%3A%20nowrap%3B%26quot%3B%26gt%3B%253CmxGraphModel%253E%253Croot%253E%253CmxCell%2520id%253D%25220%2522%252F%253E%253CmxCell%2520id%253D%25221%2522%2520parent%253D%25220%2522%252F%253E%253CmxCell%2520id%253D%25222%2522%2520value%253D%25222.%2520View%2520Attendance%2522%2520style%253D%2522text%253Bhtml%253D1%253Balign%253Dcenter%253BverticalAlign%253Dmiddle%253BwhiteSpace%253Dwrap%253Brounded%253D0%253B%2522%2520vertex%253D%25221%2522%2520parent%253D%25221%2522%253E%253CmxGeometry%2520x%253D%2522240%2522%2520y%253D%2522362.5%2522%2520width%253D%2522110%2522%2520height%253D%252230%2522%2520as%253D%2522geometry%2522%252F%253E%253C%252FmxCell%253E%253C%252Froot%253E%253C%252FmxGraphModel%253E%26lt%3B%2Fspan%26gt%3B%26lt%3Bspan%20style%3D%26quot%3Bcolor%3A%20rgba(0%2C%200%2C%200%2C%200)%3B%20font-family%3A%20monospace%3B%20font-size%3A%200px%3B%20text-align%3A%20start%3B%20text-wrap%3A%20nowrap%3B%26quot%3B%26gt%3B%253CmxGraphModel%253E%253Croot%253E%253CmxCell%2520id%253D%25220%2522%252F%253E%253CmxCell%2520id%253D%25221%2522%2520parent%253D%25220%2522%252F%253E%253CmxCell%2520id%253D%25222%2522%2520value%253D%25222.%2520View%2520Attendance%2522%2520style%253D%2522text%253Bhtml%253D1%253Balign%253Dcenter%253BverticalAlign%253Dmiddle%253BwhiteSpace%253Dwrap%253Brounded%253D0%253B%2522%2520vertex%253D%25221%2522%2520parent%253D%25221%2522%253E%253CmxGeometry%2520x%253D%2522240%2522%2520y%253D%2522362.5%2522%2520width%253D%2522110%2522%2520height%253D%252230%2522%2520as%253D%2522geometry%2522%252F%253E%253C%252FmxCell%253E%253C%252Froot%253E%253C%252FmxGraphModel%253E%26lt%3B%2Fspan%26gt%3B%26lt%3Bspan%20style%3D%26quot%3Bcolor%3A%20rgba(0%2C%200%2C%200%2C%200)%3B%20font-family%3A%20monospace%3B%20font-size%3A%200px%3B%20text-align%3A%20start%3B%20text-wrap%3A%20nowrap%3B%26quot%3B%26gt%3B%253CmxGraphModel%253E%253Croot%253E%253CmxCell%2520id%253D%25220%2522%252F%253E%253CmxCell%2520id%253D%25221%2522%2520parent%253D%25220%2522%252F%253E%253CmxCell%2520id%253D%25222%2522%2520value%253D%25222.%2520View%2520Attendance%2522%2520style%253D%2522text%253Bhtml%253D1%253Balign%253Dcenter%253BverticalAlign%253Dmiddle%253BwhiteSpace%253Dwrap%253Brounded%253D0%253B%2522%2520vertex%253D%25221%2522%2520parent%253D%25221%2522%253E%253CmxGeometry%2520x%253D%2522240%2522%2520y%253D%2522362.5%2522%2520width%253D%2522110%2522%2520height%253D%252230%2522%2520as%253D%2522geometry%2522%252F%253E%253C%252FmxCell%253E%253C%252Froot%253E%253C%25%26lt%3B%2Fspan%26gt%3B%22%20style%3D%22text%3Bhtml%3D1%3Balign%3Dcenter%3BverticalAlign%3Dmiddle%3BwhiteSpace%3Dwrap%3Brounded%3D0%3B%22%20vertex%3D%221%22%20parent%3D%221%22%3E%3CmxGeometry%20x%3D%22720%22%20y%3D%221137%22%20width%3D%22110%22%20height%3D%2230%22%20as%3D%22geometry%22%2F%3E%3C%2FmxCell%3E%3C%2Froot%3E%3C%2FmxGraphModel%3E&lt;/span&gt;&lt;span style=&quot;text-wrap: nowrap; color: rgba(0, 0, 0, 0); font-family: monospace; font-size: 0px; text-align: start;&quot;&gt;%3CmxGraphModel%3E%3Croot%3E%3CmxCell%20id%3D%220%22%2F%3E%3CmxCell%20id%3D%221%22%20parent%3D%220%22%2F%3E%3CmxCell%20id%3D%222%22%20value%3D%225.%20View%20Defaulter&#39;s%20List%26lt%3Bspan%20style%3D%26quot%3Bcolor%3A%20rgba(0%2C%200%2C%200%2C%200)%3B%20font-family%3A%20monospace%3B%20font-size%3A%200px%3B%20text-align%3A%20start%3B%20text-wrap%3A%20nowrap%3B%26quot%3B%26gt%3B%253CmxGraphModel%253E%253Croot%253E%253CmxCell%2520id%253D%25220%2522%252F%253E%253CmxCell%2520id%253D%25221%2522%2520parent%253D%25220%2522%252F%253E%253CmxCell%2520id%253D%25222%2522%2520value%253D%25222.%2520View%2520Attendance%2522%2520style%253D%2522text%253Bhtml%253D1%253Balign%253Dcenter%253BverticalAlign%253Dmiddle%253BwhiteSpace%253Dwrap%253Brounded%253D0%253B%2522%2520vertex%253D%25221%2522%2520parent%253D%25221%2522%253E%253CmxGeometry%2520x%253D%2522240%2522%2520y%253D%2522362.5%2522%2520width%253D%2522110%2522%2520height%253D%252230%2522%2520as%253D%2522geometry%2522%252F%253E%253C%252FmxCell%253E%253C%252Froot%253E%253C%252FmxGraphModel%253E%26lt%3B%2Fspan%26gt%3B%26lt%3Bspan%20style%3D%26quot%3Bcolor%3A%20rgba(0%2C%200%2C%200%2C%200)%3B%20font-family%3A%20monospace%3B%20font-size%3A%200px%3B%20text-align%3A%20start%3B%20text-wrap%3A%20nowrap%3B%26quot%3B%26gt%3B%253CmxGraphModel%253E%253Croot%253E%253CmxCell%2520id%253D%25220%2522%252F%253E%253CmxCell%2520id%253D%25221%2522%2520parent%253D%25220%2522%252F%253E%253CmxCell%2520id%253D%25222%2522%2520value%253D%25222.%2520View%2520Attendance%2522%2520style%253D%2522text%253Bhtml%253D1%253Balign%253Dcenter%253BverticalAlign%253Dmiddle%253BwhiteSpace%253Dwrap%253Brounded%253D0%253B%2522%2520vertex%253D%25221%2522%2520parent%253D%25221%2522%253E%253CmxGeometry%2520x%253D%2522240%2522%2520y%253D%2522362.5%2522%2520width%253D%2522110%2522%2520height%253D%252230%2522%2520as%253D%2522geometry%2522%252F%253E%253C%252FmxCell%253E%253C%252Froot%253E%253C%252FmxGraphModel%253E%26lt%3B%2Fspan%26gt%3B%26lt%3Bspan%20style%3D%26quot%3Bcolor%3A%20rgba(0%2C%200%2C%200%2C%200)%3B%20font-family%3A%20monospace%3B%20font-size%3A%200px%3B%20text-align%3A%20start%3B%20text-wrap%3A%20nowrap%3B%26quot%3B%26gt%3B%253CmxGraphModel%253E%253Croot%253E%253CmxCell%2520id%253D%25220%2522%252F%253E%253CmxCell%2520id%253D%25221%2522%2520parent%253D%25220%2522%252F%253E%253CmxCell%2520id%253D%25222%2522%2520value%253D%25222.%2520View%2520Attendance%2522%2520style%253D%2522text%253Bhtml%253D1%253Balign%253Dcenter%253BverticalAlign%253Dmiddle%253BwhiteSpace%253Dwrap%253Brounded%253D0%253B%2522%2520vertex%253D%25221%2522%2520parent%253D%25221%2522%253E%253CmxGeometry%2520x%253D%2522240%2522%2520y%253D%2522362.5%2522%2520width%253D%2522110%2522%2520height%253D%252230%2522%2520as%253D%2522geometry%2522%252F%253E%253C%252FmxCell%253E%253C%252Froot%253E%253C%25%26lt%3B%2Fspan%26gt%3B%22%20style%3D%22text%3Bhtml%3D1%3Balign%3Dcenter%3BverticalAlign%3Dmiddle%3BwhiteSpace%3Dwrap%3Brounded%3D0%3B%22%20vertex%3D%221%22%20parent%3D%221%22%3E%3CmxGeometry%20x%3D%22720%22%20y%3D%221137%22%20width%3D%22110%22%20height%3D%2230%22%20as%3D%22geometry%22%2F%3E%3C%2FmxCell%3E%3C%2Froot%3E%3C%2FmxGraphModel%3E&lt;/span&gt;&lt;span style=&quot;text-wrap: nowrap; color: rgba(0, 0, 0, 0); font-family: monospace; font-size: 0px; text-align: start;&quot;&gt;%3CmxGraphModel%3E%3Croot%3E%3CmxCell%20id%3D%220%22%2F%3E%3CmxCell%20id%3D%221%22%20parent%3D%220%22%2F%3E%3CmxCell%20id%3D%222%22%20value%3D%225.%20View%20Defaulter&#39;s%20List%26lt%3Bspan%20style%3D%26quot%3Bcolor%3A%20rgba(0%2C%200%2C%200%2C%200)%3B%20font-family%3A%20monospace%3B%20font-size%3A%200px%3B%20text-align%3A%20start%3B%20text-wrap%3A%20nowrap%3B%26quot%3B%26gt%3B%253CmxGraphModel%253E%253Croot%253E%253CmxCell%2520id%253D%25220%2522%252F%253E%253CmxCell%2520id%253D%25221%2522%2520parent%253D%25220%2522%252F%253E%253CmxCell%2520id%253D%25222%2522%2520value%253D%25222.%2520View%2520Attendance%2522%2520style%253D%2522text%253Bhtml%253D1%253Balign%253Dcenter%253BverticalAlign%253Dmiddle%253BwhiteSpace%253Dwrap%253Brounded%253D0%253B%2522%2520vertex%253D%25221%2522%2520parent%253D%25221%2522%253E%253CmxGeometry%2520x%253D%2522240%2522%2520y%253D%2522362.5%2522%2520width%253D%2522110%2522%2520height%253D%252230%2522%2520as%253D%2522geometry%2522%252F%253E%253C%252FmxCell%253E%253C%252Froot%253E%253C%252FmxGraphModel%253E%26lt%3B%2Fspan%26gt%3B%26lt%3Bspan%20style%3D%26quot%3Bcolor%3A%20rgba(0%2C%200%2C%200%2C%200)%3B%20font-family%3A%20monospace%3B%20font-size%3A%200px%3B%20text-align%3A%20start%3B%20text-wrap%3A%20nowrap%3B%26quot%3B%26gt%3B%253CmxGraphModel%253E%253Croot%253E%253CmxCell%2520id%253D%25220%2522%252F%253E%253CmxCell%2520id%253D%25221%2522%2520parent%253D%25220%2522%252F%253E%253CmxCell%2520id%253D%25222%2522%2520value%253D%25222.%2520View%2520Attendance%2522%2520style%253D%2522text%253Bhtml%253D1%253Balign%253Dcenter%253BverticalAlign%253Dmiddle%253BwhiteSpace%253Dwrap%253Brounded%253D0%253B%2522%2520vertex%253D%25221%2522%2520parent%253D%25221%2522%253E%253CmxGeometry%2520x%253D%2522240%2522%2520y%253D%2522362.5%2522%2520width%253D%2522110%2522%2520height%253D%252230%2522%2520as%253D%2522geometry%2522%252F%253E%253C%252FmxCell%253E%253C%252Froot%253E%253C%252FmxGraphModel%253E%26lt%3B%2Fspan%26gt%3B%26lt%3Bspan%20style%3D%26quot%3Bcolor%3A%20rgba(0%2C%200%2C%200%2C%200)%3B%20font-family%3A%20monospace%3B%20font-size%3A%200px%3B%20text-align%3A%20start%3B%20text-wrap%3A%20nowrap%3B%26quot%3B%26gt%3B%253CmxGraphModel%253E%253Croot%253E%253CmxCell%2520id%253D%25220%2522%252F%253E%253CmxCell%2520id%253D%25221%2522%2520parent%253D%25220%2522%252F%253E%253CmxCell%2520id%253D%25222%2522%2520value%253D%25222.%2520View%2520Attendance%2522%2520style%253D%2522text%253Bhtml%253D1%253Balign%253Dcenter%253BverticalAlign%253Dmiddle%253BwhiteSpace%253Dwrap%253Brounded%253D0%253B%2522%2520vertex%253D%25221%2522%2520parent%253D%25221%2522%253E%253CmxGeometry%2520x%253D%2522240%2522%2520y%253D%2522362.5%2522%2520width%253D%2522110%2522%2520height%253D%252230%2522%2520as%253D%2522geometry%2522%252F%253E%253C%252FmxCell%253E%253C%252Froot%253E%253C%25%26lt%3B%2Fspan%26gt%3B%22%20style%3D%22text%3Bhtml%3D1%3Balign%3Dcenter%3BverticalAlign%3Dmiddle%3BwhiteSpace%3Dwrap%3Brounded%3D0%3B%22%20vertex%3D%221%22%20parent%3D%221%22%3E%3CmxGeometry%20x%3D%22720%22%20y%3D%221137%22%20width%3D%22110%22%20height%3D%2230%22%20as%3D%22geometry%22%2F%3E%3C%2FmxCell%3E%3C%2Froot%3E%3C%2FmxGraphModel%3E&lt;/span&gt;&lt;span style=&quot;text-wrap: nowrap; color: rgba(0, 0, 0, 0); font-family: monospace; font-size: 0px; text-align: start;&quot;&gt;%3CmxGraphModel%3E%3Croot%3E%3CmxCell%20id%3D%220%22%2F%3E%3CmxCell%20id%3D%221%22%20parent%3D%220%22%2F%3E%3CmxCell%20id%3D%222%22%20value%3D%225.%20View%20Defaulter&#39;s%20List%26lt%3Bspan%20style%3D%26quot%3Bcolor%3A%20rgba(0%2C%200%2C%200%2C%200)%3B%20font-family%3A%20monospace%3B%20font-size%3A%200px%3B%20text-align%3A%20start%3B%20text-wrap%3A%20nowrap%3B%26quot%3B%26gt%3B%253CmxGraphModel%253E%253Croot%253E%253CmxCell%2520id%253D%25220%2522%252F%253E%253CmxCell%2520id%253D%25221%2522%2520parent%253D%25220%2522%252F%253E%253CmxCell%2520id%253D%25222%2522%2520value%253D%25222.%2520View%2520Attendance%2522%2520style%253D%2522text%253Bhtml%253D1%253Balign%253Dcenter%253BverticalAlign%253Dmiddle%253BwhiteSpace%253Dwrap%253Brounded%253D0%253B%2522%2520vertex%253D%25221%2522%2520parent%253D%25221%2522%253E%253CmxGeometry%2520x%253D%2522240%2522%2520y%253D%2522362.5%2522%2520width%253D%2522110%2522%2520height%253D%252230%2522%2520as%253D%2522geometry%2522%252F%253E%253C%252FmxCell%253E%253C%252Froot%253E%253C%252FmxGraphModel%253E%26lt%3B%2Fspan%26gt%3B%26lt%3Bspan%20style%3D%26quot%3Bcolor%3A%20rgba(0%2C%200%2C%200%2C%200)%3B%20font-family%3A%20monospace%3B%20font-size%3A%200px%3B%20text-align%3A%20start%3B%20text-wrap%3A%20nowrap%3B%26quot%3B%26gt%3B%253CmxGraphModel%253E%253Croot%253E%253CmxCell%2520id%253D%25220%2522%252F%253E%253CmxCell%2520id%253D%25221%2522%2520parent%253D%25220%2522%252F%253E%253CmxCell%2520id%253D%25222%2522%2520value%253D%25222.%2520View%2520Attendance%2522%2520style%253D%2522text%253Bhtml%253D1%253Balign%253Dcenter%253BverticalAlign%253Dmiddle%253BwhiteSpace%253Dwrap%253Brounded%253D0%253B%2522%2520vertex%253D%25221%2522%2520parent%253D%25221%2522%253E%253CmxGeometry%2520x%253D%2522240%2522%2520y%253D%2522362.5%2522%2520width%253D%2522110%2522%2520height%253D%252230%2522%2520as%253D%2522geometry%2522%252F%253E%253C%252FmxCell%253E%253C%252Froot%253E%253C%252FmxGraphModel%253E%26lt%3B%2Fspan%26gt%3B%26lt%3Bspan%20style%3D%26quot%3Bcolor%3A%20rgba(0%2C%200%2C%200%2C%200)%3B%20font-family%3A%20monospace%3B%20font-size%3A%200px%3B%20text-align%3A%20start%3B%20text-wrap%3A%20nowrap%3B%26quot%3B%26gt%3B%253CmxGraphModel%253E%253Croot%253E%253CmxCell%2520id%253D%25220%2522%252F%253E%253CmxCell%2520id%253D%25221%2522%2520parent%253D%25220%2522%252F%253E%253CmxCell%2520id%253D%25222%2522%2520value%253D%25222.%2520View%2520Attendance%2522%2520style%253D%2522text%253Bhtml%253D1%253Balign%253Dcenter%253BverticalAlign%253Dmiddle%253BwhiteSpace%253Dwrap%253Brounded%253D0%253B%2522%2520vertex%253D%25221%2522%2520parent%253D%25221%2522%253E%253CmxGeometry%2520x%253D%2522240%2522%2520y%253D%2522362.5%2522%2520width%253D%2522110%2522%2520height%253D%252230%2522%2520as%253D%2522geometry%2522%252F%253E%253C%252FmxCell%253E%253C%252Froot%253E%253C%25%26lt%3B%2Fspan%26gt%3B%22%20style%3D%22text%3Bhtml%3D1%3Balign%3Dcenter%3BverticalAlign%3Dmiddle%3BwhiteSpace%3Dwrap%3Brounded%3D0%3B%22%20vertex%3D%221%22%20parent%3D%221%22%3E%3CmxGeometry%20x%3D%22720%22%20y%3D%221137%22%20width%3D%22110%22%20height%3D%2230%22%20as%3D%22geometry%22%2F%3E%3C%2FmxCell%3E%3C%2Froot%3E%3C%2FmxGraphModel%3E&lt;/span&gt;&lt;span style=&quot;text-wrap: nowrap; color: rgba(0, 0, 0, 0); font-family: monospace; font-size: 0px; text-align: start;&quot;&gt;%3CmxGraphModel%3E%3Croot%3E%3CmxCell%20id%3D%220%22%2F%3E%3CmxCell%20id%3D%221%22%20parent%3D%220%22%2F%3E%3CmxCell%20id%3D%222%22%20value%3D%225.%20View%20Defaulter&#39;s%20List%26lt%3Bspan%20style%3D%26quot%3Bcolor%3A%20rgba(0%2C%200%2C%200%2C%200)%3B%20font-family%3A%20monospace%3B%20font-size%3A%200px%3B%20text-align%3A%20start%3B%20text-wrap%3A%20nowrap%3B%26quot%3B%26gt%3B%253CmxGraphModel%253E%253Croot%253E%253CmxCell%2520id%253D%25220%2522%252F%253E%253CmxCell%2520id%253D%25221%2522%2520parent%253D%25220%2522%252F%253E%253CmxCell%2520id%253D%25222%2522%2520value%253D%25222.%2520View%2520Attendance%2522%2520style%253D%2522text%253Bhtml%253D1%253Balign%253Dcenter%253BverticalAlign%253Dmiddle%253BwhiteSpace%253Dwrap%253Brounded%253D0%253B%2522%2520vertex%253D%25221%2522%2520parent%253D%25221%2522%253E%253CmxGeometry%2520x%253D%2522240%2522%2520y%253D%2522362.5%2522%2520width%253D%2522110%2522%2520height%253D%252230%2522%2520as%253D%2522geometry%2522%252F%253E%253C%252FmxCell%253E%253C%252Froot%253E%253C%252FmxGraphModel%253E%26lt%3B%2Fspan%26gt%3B%26lt%3Bspan%20style%3D%26quot%3Bcolor%3A%20rgba(0%2C%200%2C%200%2C%200)%3B%20font-family%3A%20monospace%3B%20font-size%3A%200px%3B%20text-align%3A%20start%3B%20text-wrap%3A%20nowrap%3B%26quot%3B%26gt%3B%253CmxGraphModel%253E%253Croot%253E%253CmxCell%2520id%253D%25220%2522%252F%253E%253CmxCell%2520id%253D%25221%2522%2520parent%253D%25220%2522%252F%253E%253CmxCell%2520id%253D%25222%2522%2520value%253D%25222.%2520View%2520Attendance%2522%2520style%253D%2522text%253Bhtml%253D1%253Balign%253Dcenter%253BverticalAlign%253Dmiddle%253BwhiteSpace%253Dwrap%253Brounded%253D0%253B%2522%2520vertex%253D%25221%2522%2520parent%253D%25221%2522%253E%253CmxGeometry%2520x%253D%2522240%2522%2520y%253D%2522362.5%2522%2520width%253D%2522110%2522%2520height%253D%252230%2522%2520as%253D%2522geometry%2522%252F%253E%253C%252FmxCell%253E%253C%252Froot%253E%253C%252FmxGraphModel%253E%26lt%3B%2Fspan%26gt%3B%26lt%3Bspan%20style%3D%26quot%3Bcolor%3A%20rgba(0%2C%200%2C%200%2C%200)%3B%20font-family%3A%20monospace%3B%20font-size%3A%200px%3B%20text-align%3A%20start%3B%20text-wrap%3A%20nowrap%3B%26quot%3B%26gt%3B%253CmxGraphModel%253E%253Croot%253E%253CmxCell%2520id%253D%25220%2522%252F%253E%253CmxCell%2520id%253D%25221%2522%2520parent%253D%25220%2522%252F%253E%253CmxCell%2520id%253D%25222%2522%2520value%253D%25222.%2520View%2520Attendance%2522%2520style%253D%2522text%253Bhtml%253D1%253Balign%253Dcenter%253BverticalAlign%253Dmiddle%253BwhiteSpace%253Dwrap%253Brounded%253D0%253B%2522%2520vertex%253D%25221%2522%2520parent%253D%25221%2522%253E%253CmxGeometry%2520x%253D%2522240%2522%2520y%253D%2522362.5%2522%2520width%253D%2522110%2522%2520height%253D%252230%2522%2520as%253D%2522geometry%2522%252F%253E%253C%252FmxCell%253E%253C%252Froot%253E%253C%25%26lt%3B%2Fspan%26gt%3B%22%20style%3D%22text%3Bhtml%3D1%3Balign%3Dcenter%3BverticalAlign%3Dmiddle%3BwhiteSpace%3Dwrap%3Brounded%3D0%3B%22%20vertex%3D%221%22%20parent%3D%221%22%3E%3CmxGeometry%20x%3D%22720%22%20y%3D%221137%22%20width%3D%22110%22%20height%3D%2230%22%20as%3D%22geometry%22%2F%3E%3C%2FmxCell%3E%3C%2Froot%3E%3C%2FmxGraphModel%3E&lt;/span&gt;&lt;span style=&quot;text-wrap: nowrap; color: rgba(0, 0, 0, 0); font-family: monospace; font-size: 0px; text-align: start;&quot;&gt;%3CmxGraphModel%3E%3Croot%3E%3CmxCell%20id%3D%220%22%2F%3E%3CmxCell%20id%3D%221%22%20parent%3D%220%22%2F%3E%3CmxCell%20id%3D%222%22%20value%3D%225.%20View%20Defaulter&#39;s%20List%26lt%3Bspan%20style%3D%26quot%3Bcolor%3A%20rgba(0%2C%200%2C%200%2C%200)%3B%20font-family%3A%20monospace%3B%20font-size%3A%200px%3B%20text-align%3A%20start%3B%20text-wrap%3A%20nowrap%3B%26quot%3B%26gt%3B%253CmxGraphModel%253E%253Croot%253E%253CmxCell%2520id%253D%25220%2522%252F%253E%253CmxCell%2520id%253D%25221%2522%2520parent%253D%25220%2522%252F%253E%253CmxCell%2520id%253D%25222%2522%2520value%253D%25222.%2520View%2520Attendance%2522%2520style%253D%2522text%253Bhtml%253D1%253Balign%253Dcenter%253BverticalAlign%253Dmiddle%253BwhiteSpace%253Dwrap%253Brounded%253D0%253B%2522%2520vertex%253D%25221%2522%2520parent%253D%25221%2522%253E%253CmxGeometry%2520x%253D%2522240%2522%2520y%253D%2522362.5%2522%2520width%253D%2522110%2522%2520height%253D%252230%2522%2520as%253D%2522geometry%2522%252F%253E%253C%252FmxCell%253E%253C%252Froot%253E%253C%252FmxGraphModel%253E%26lt%3B%2Fspan%26gt%3B%26lt%3Bspan%20style%3D%26quot%3Bcolor%3A%20rgba(0%2C%200%2C%200%2C%200)%3B%20font-family%3A%20monospace%3B%20font-size%3A%200px%3B%20text-align%3A%20start%3B%20text-wrap%3A%20nowrap%3B%26quot%3B%26gt%3B%253CmxGraphModel%253E%253Croot%253E%253CmxCell%2520id%253D%25220%2522%252F%253E%253CmxCell%2520id%253D%25221%2522%2520parent%253D%25220%2522%252F%253E%253CmxCell%2520id%253D%25222%2522%2520value%253D%25222.%2520View%2520Attendance%2522%2520style%253D%2522text%253Bhtml%253D1%253Balign%253Dcenter%253BverticalAlign%253Dmiddle%253BwhiteSpace%253Dwrap%253Brounded%253D0%253B%2522%2520vertex%253D%25221%2522%2520parent%253D%25221%2522%253E%253CmxGeometry%2520x%253D%2522240%2522%2520y%253D%2522362.5%2522%2520width%253D%2522110%2522%2520height%253D%252230%2522%2520as%253D%2522geometry%2522%252F%253E%253C%252FmxCell%253E%253C%252Froot%253E%253C%252FmxGraphModel%253E%26lt%3B%2Fspan%26gt%3B%26lt%3Bspan%20style%3D%26quot%3Bcolor%3A%20rgba(0%2C%200%2C%200%2C%200)%3B%20font-family%3A%20monospace%3B%20font-size%3A%200px%3B%20text-align%3A%20start%3B%20text-wrap%3A%20nowrap%3B%26quot%3B%26gt%3B%253CmxGraphModel%253E%253Croot%253E%253CmxCell%2520id%253D%25220%2522%252F%253E%253CmxCell%2520id%253D%25221%2522%2520parent%253D%25220%2522%252F%253E%253CmxCell%2520id%253D%25222%2522%2520value%253D%25222.%2520View%2520Attendance%2522%2520style%253D%2522text%253Bhtml%253D1%253Balign%253Dcenter%253BverticalAlign%253Dmiddle%253BwhiteSpace%253Dwrap%253Brounded%253D0%253B%2522%2520vertex%253D%25221%2522%2520parent%253D%25221%2522%253E%253CmxGeometry%2520x%253D%2522240%2522%2520y%253D%2522362.5%2522%2520width%253D%2522110%2522%2520height%253D%252230%2522%2520as%253D%2522geometry%2522%252F%253E%253C%252FmxCell%253E%253C%252Froot%253E%253C%25%26lt%3B%2Fspan%26gt%3B%22%20style%3D%22text%3Bhtml%3D1%3Balign%3Dcenter%3BverticalAlign%3Dmiddle%3BwhiteSpace%3Dwrap%3Brounded%3D0%3B%22%20vertex%3D%221%22%20parent%3D%221%22%3E%3CmxGeometry%20x%3D%22720%22%20y%3D%221137%22%20width%3D%22110%22%20height%3D%2230%22%20as%3D%22geometry%22%2F%3E%3C%2FmxCell%3E%3C%2Froot%3E%3C%2FmxGraphModel%3E&lt;/span&gt;ndance&lt;span style=&quot;text-wrap: nowrap; color: rgba(0, 0, 0, 0); font-family: monospace; font-size: 0px; text-align: start;&quot;&gt;%3CmxGraphModel%3E%3Croot%3E%3CmxCell%20id%3D%220%22%2F%3E%3CmxCell%20id%3D%221%22%20parent%3D%220%22%2F%3E%3CmxCell%20id%3D%222%22%20value%3D%225.%20View%20Defaulter&#39;s%20List%26lt%3Bspan%20style%3D%26quot%3Bcolor%3A%20rgba(0%2C%200%2C%200%2C%200)%3B%20font-family%3A%20monospace%3B%20font-size%3A%200px%3B%20text-align%3A%20start%3B%20text-wrap%3A%20nowrap%3B%26quot%3B%26gt%3B%253CmxGraphModel%253E%253Croot%253E%253CmxCell%2520id%253D%25220%2522%252F%253E%253CmxCell%2520id%253D%25221%2522%2520parent%253D%25220%2522%252F%253E%253CmxCell%2520id%253D%25222%2522%2520value%253D%25222.%2520View%2520Attendance%2522%2520style%253D%2522text%253Bhtml%253D1%253Balign%253Dcenter%253BverticalAlign%253Dmiddle%253BwhiteSpace%253Dwrap%253Brounded%253D0%253B%2522%2520vertex%253D%25221%2522%2520parent%253D%25221%2522%253E%253CmxGeometry%2520x%253D%2522240%2522%2520y%253D%2522362.5%2522%2520width%253D%2522110%2522%2520height%253D%252230%2522%2520as%253D%2522geometry%2522%252F%253E%253C%252FmxCell%253E%253C%252Froot%253E%253C%252FmxGraphModel%253E%26lt%3B%2Fspan%26gt%3B%26lt%3Bspan%20style%3D%26quot%3Bcolor%3A%20rgba(0%2C%200%2C%200%2C%200)%3B%20font-family%3A%20monospace%3B%20font-size%3A%200px%3B%20text-align%3A%20start%3B%20text-wrap%3A%20nowrap%3B%26quot%3B%26gt%3B%253CmxGraphModel%253E%253Croot%253E%253CmxCell%2520id%253D%25220%2522%252F%253E%253CmxCell%2520id%253D%25221%2522%2520parent%253D%25220%2522%252F%253E%253CmxCell%2520id%253D%25222%2522%2520value%253D%25222.%2520View%2520Attendance%2522%2520style%253D%2522text%253Bhtml%253D1%253Balign%253Dcenter%253BverticalAlign%253Dmiddle%253BwhiteSpace%253Dwrap%253Brounded%253D0%253B%2522%2520vertex%253D%25221%2522%2520parent%253D%25221%2522%253E%253CmxGeometry%2520x%253D%2522240%2522%2520y%253D%2522362.5%2522%2520width%253D%2522110%2522%2520height%253D%252230%2522%2520as%253D%2522geometry%2522%252F%253E%253C%252FmxCell%253E%253C%252Froot%253E%253C%252FmxGraphModel%253E%26lt%3B%2Fspan%26gt%3B%26lt%3Bspan%20style%3D%26quot%3Bcolor%3A%20rgba(0%2C%200%2C%200%2C%200)%3B%20font-family%3A%20monospace%3B%20font-size%3A%200px%3B%20text-align%3A%20start%3B%20text-wrap%3A%20nowrap%3B%26quot%3B%26gt%3B%253CmxGraphModel%253E%253Croot%253E%253CmxCell%2520id%253D%25220%2522%252F%253E%253CmxCell%2520id%253D%25221%2522%2520parent%253D%25220%2522%252F%253E%253CmxCell%2520id%253D%25222%2522%2520value%253D%25222.%2520View%2520Attendance%2522%2520style%253D%2522text%253Bhtml%253D1%253Balign%253Dcenter%253BverticalAlign%253Dmiddle%253BwhiteSpace%253Dwrap%253Brounded%253D0%253B%2522%2520vertex%253D%25221%2522%2520parent%253D%25221%2522%253E%253CmxGeometry%2520x%253D%2522240%2522%2520y%253D%2522362.5%2522%2520width%253D%2522110%2522%2520height%253D%252230%2522%2520as%253D%2522geometry%2522%252F%253E%253C%252FmxCell%253E%253C%252Froot%253E%253C%25%26lt%3B%2Fspan%26gt%3B%22%20style%3D%22text%3Bhtml%3D1%3Balign%3Dcenter%3BverticalAlign%3Dmiddle%3BwhiteSpace%3Dwrap%3Brounded%3D0%3B%22%20vertex%3D%221%22%20parent%3D%221%22%3E%3CmxGeometry%20x%3D%22720%22%20y%3D%221137%22%20width%3D%22110%22%20height%3D%2230%22%20as%3D%22geometry%22%2F%3E%3C%2FmxCell%3E%3C%2Froot%3E%3C%2FmxGraphModel%3E&lt;/span&gt;" style="rounded=0;whiteSpace=wrap;html=1;" vertex="1" parent="1">
          <mxGeometry x="941" y="890" width="120" height="40" as="geometry" />
        </mxCell>
        <mxCell id="ZCRnJ9vzYanFj2SS8UY6-165" value="" style="endArrow=none;dashed=1;html=1;rounded=0;entryX=0.5;entryY=1;entryDx=0;entryDy=0;" edge="1" parent="1" source="ZCRnJ9vzYanFj2SS8UY6-166">
          <mxGeometry width="50" height="50" relative="1" as="geometry">
            <mxPoint x="1000.52" y="1340" as="sourcePoint" />
            <mxPoint x="1000.52" y="930" as="targetPoint" />
          </mxGeometry>
        </mxCell>
        <mxCell id="ZCRnJ9vzYanFj2SS8UY6-166" value="" style="rounded=0;whiteSpace=wrap;html=1;" vertex="1" parent="1">
          <mxGeometry x="991" y="1190" width="20" height="33" as="geometry" />
        </mxCell>
        <mxCell id="ZCRnJ9vzYanFj2SS8UY6-168" style="edgeStyle=orthogonalEdgeStyle;rounded=0;orthogonalLoop=1;jettySize=auto;html=1;entryX=-0.026;entryY=0.902;entryDx=0;entryDy=0;entryPerimeter=0;" edge="1" parent="1" source="ZCRnJ9vzYanFj2SS8UY6-166" target="ZCRnJ9vzYanFj2SS8UY6-103">
          <mxGeometry relative="1" as="geometry" />
        </mxCell>
        <mxCell id="ZCRnJ9vzYanFj2SS8UY6-169" value="6. Mark Studetn&#39;s Atte&lt;span style=&quot;text-wrap: nowrap; color: rgba(0, 0, 0, 0); font-family: monospace; font-size: 0px; text-align: start;&quot;&gt;%3CmxGraphModel%3E%3Croot%3E%3CmxCell%20id%3D%220%22%2F%3E%3CmxCell%20id%3D%221%22%20parent%3D%220%22%2F%3E%3CmxCell%20id%3D%222%22%20value%3D%225.%20View%20Defaulter&#39;s%20List%26lt%3Bspan%20style%3D%26quot%3Bcolor%3A%20rgba(0%2C%200%2C%200%2C%200)%3B%20font-family%3A%20monospace%3B%20font-size%3A%200px%3B%20text-align%3A%20start%3B%20text-wrap%3A%20nowrap%3B%26quot%3B%26gt%3B%253CmxGraphModel%253E%253Croot%253E%253CmxCell%2520id%253D%25220%2522%252F%253E%253CmxCell%2520id%253D%25221%2522%2520parent%253D%25220%2522%252F%253E%253CmxCell%2520id%253D%25222%2522%2520value%253D%25222.%2520View%2520Attendance%2522%2520style%253D%2522text%253Bhtml%253D1%253Balign%253Dcenter%253BverticalAlign%253Dmiddle%253BwhiteSpace%253Dwrap%253Brounded%253D0%253B%2522%2520vertex%253D%25221%2522%2520parent%253D%25221%2522%253E%253CmxGeometry%2520x%253D%2522240%2522%2520y%253D%2522362.5%2522%2520width%253D%2522110%2522%2520height%253D%252230%2522%2520as%253D%2522geometry%2522%252F%253E%253C%252FmxCell%253E%253C%252Froot%253E%253C%252FmxGraphModel%253E%26lt%3B%2Fspan%26gt%3B%26lt%3Bspan%20style%3D%26quot%3Bcolor%3A%20rgba(0%2C%200%2C%200%2C%200)%3B%20font-family%3A%20monospace%3B%20font-size%3A%200px%3B%20text-align%3A%20start%3B%20text-wrap%3A%20nowrap%3B%26quot%3B%26gt%3B%253CmxGraphModel%253E%253Croot%253E%253CmxCell%2520id%253D%25220%2522%252F%253E%253CmxCell%2520id%253D%25221%2522%2520parent%253D%25220%2522%252F%253E%253CmxCell%2520id%253D%25222%2522%2520value%253D%25222.%2520View%2520Attendance%2522%2520style%253D%2522text%253Bhtml%253D1%253Balign%253Dcenter%253BverticalAlign%253Dmiddle%253BwhiteSpace%253Dwrap%253Brounded%253D0%253B%2522%2520vertex%253D%25221%2522%2520parent%253D%25221%2522%253E%253CmxGeometry%2520x%253D%2522240%2522%2520y%253D%2522362.5%2522%2520width%253D%2522110%2522%2520height%253D%252230%2522%2520as%253D%2522geometry%2522%252F%253E%253C%252FmxCell%253E%253C%252Froot%253E%253C%252FmxGraphModel%253E%26lt%3B%2Fspan%26gt%3B%26lt%3Bspan%20style%3D%26quot%3Bcolor%3A%20rgba(0%2C%200%2C%200%2C%200)%3B%20font-family%3A%20monospace%3B%20font-size%3A%200px%3B%20text-align%3A%20start%3B%20text-wrap%3A%20nowrap%3B%26quot%3B%26gt%3B%253CmxGraphModel%253E%253Croot%253E%253CmxCell%2520id%253D%25220%2522%252F%253E%253CmxCell%2520id%253D%25221%2522%2520parent%253D%25220%2522%252F%253E%253CmxCell%2520id%253D%25222%2522%2520value%253D%25222.%2520View%2520Attendance%2522%2520style%253D%2522text%253Bhtml%253D1%253Balign%253Dcenter%253BverticalAlign%253Dmiddle%253BwhiteSpace%253Dwrap%253Brounded%253D0%253B%2522%2520vertex%253D%25221%2522%2520parent%253D%25221%2522%253E%253CmxGeometry%2520x%253D%2522240%2522%2520y%253D%2522362.5%2522%2520width%253D%2522110%2522%2520height%253D%252230%2522%2520as%253D%2522geometry%2522%252F%253E%253C%252FmxCell%253E%253C%252Froot%253E%253C%25%26lt%3B%2Fspan%26gt%3B%22%20style%3D%22text%3Bhtml%3D1%3Balign%3Dcenter%3BverticalAlign%3Dmiddle%3BwhiteSpace%3Dwrap%3Brounded%3D0%3B%22%20vertex%3D%221%22%20parent%3D%221%22%3E%3CmxGeometry%20x%3D%22720%22%20y%3D%221137%22%20width%3D%22110%22%20height%3D%2230%22%20as%3D%22geometry%22%2F%3E%3C%2FmxCell%3E%3C%2Froot%3E%3C%2FmxGraphModel%3E&lt;/span&gt;&lt;span style=&quot;text-wrap: nowrap; color: rgba(0, 0, 0, 0); font-family: monospace; font-size: 0px; text-align: start;&quot;&gt;%3CmxGraphModel%3E%3Croot%3E%3CmxCell%20id%3D%220%22%2F%3E%3CmxCell%20id%3D%221%22%20parent%3D%220%22%2F%3E%3CmxCell%20id%3D%222%22%20value%3D%225.%20View%20Defaulter&#39;s%20List%26lt%3Bspan%20style%3D%26quot%3Bcolor%3A%20rgba(0%2C%200%2C%200%2C%200)%3B%20font-family%3A%20monospace%3B%20font-size%3A%200px%3B%20text-align%3A%20start%3B%20text-wrap%3A%20nowrap%3B%26quot%3B%26gt%3B%253CmxGraphModel%253E%253Croot%253E%253CmxCell%2520id%253D%25220%2522%252F%253E%253CmxCell%2520id%253D%25221%2522%2520parent%253D%25220%2522%252F%253E%253CmxCell%2520id%253D%25222%2522%2520value%253D%25222.%2520View%2520Attendance%2522%2520style%253D%2522text%253Bhtml%253D1%253Balign%253Dcenter%253BverticalAlign%253Dmiddle%253BwhiteSpace%253Dwrap%253Brounded%253D0%253B%2522%2520vertex%253D%25221%2522%2520parent%253D%25221%2522%253E%253CmxGeometry%2520x%253D%2522240%2522%2520y%253D%2522362.5%2522%2520width%253D%2522110%2522%2520height%253D%252230%2522%2520as%253D%2522geometry%2522%252F%253E%253C%252FmxCell%253E%253C%252Froot%253E%253C%252FmxGraphModel%253E%26lt%3B%2Fspan%26gt%3B%26lt%3Bspan%20style%3D%26quot%3Bcolor%3A%20rgba(0%2C%200%2C%200%2C%200)%3B%20font-family%3A%20monospace%3B%20font-size%3A%200px%3B%20text-align%3A%20start%3B%20text-wrap%3A%20nowrap%3B%26quot%3B%26gt%3B%253CmxGraphModel%253E%253Croot%253E%253CmxCell%2520id%253D%25220%2522%252F%253E%253CmxCell%2520id%253D%25221%2522%2520parent%253D%25220%2522%252F%253E%253CmxCell%2520id%253D%25222%2522%2520value%253D%25222.%2520View%2520Attendance%2522%2520style%253D%2522text%253Bhtml%253D1%253Balign%253Dcenter%253BverticalAlign%253Dmiddle%253BwhiteSpace%253Dwrap%253Brounded%253D0%253B%2522%2520vertex%253D%25221%2522%2520parent%253D%25221%2522%253E%253CmxGeometry%2520x%253D%2522240%2522%2520y%253D%2522362.5%2522%2520width%253D%2522110%2522%2520height%253D%252230%2522%2520as%253D%2522geometry%2522%252F%253E%253C%252FmxCell%253E%253C%252Froot%253E%253C%252FmxGraphModel%253E%26lt%3B%2Fspan%26gt%3B%26lt%3Bspan%20style%3D%26quot%3Bcolor%3A%20rgba(0%2C%200%2C%200%2C%200)%3B%20font-family%3A%20monospace%3B%20font-size%3A%200px%3B%20text-align%3A%20start%3B%20text-wrap%3A%20nowrap%3B%26quot%3B%26gt%3B%253CmxGraphModel%253E%253Croot%253E%253CmxCell%2520id%253D%25220%2522%252F%253E%253CmxCell%2520id%253D%25221%2522%2520parent%253D%25220%2522%252F%253E%253CmxCell%2520id%253D%25222%2522%2520value%253D%25222.%2520View%2520Attendance%2522%2520style%253D%2522text%253Bhtml%253D1%253Balign%253Dcenter%253BverticalAlign%253Dmiddle%253BwhiteSpace%253Dwrap%253Brounded%253D0%253B%2522%2520vertex%253D%25221%2522%2520parent%253D%25221%2522%253E%253CmxGeometry%2520x%253D%2522240%2522%2520y%253D%2522362.5%2522%2520width%253D%2522110%2522%2520height%253D%252230%2522%2520as%253D%2522geometry%2522%252F%253E%253C%252FmxCell%253E%253C%252Froot%253E%253C%25%26lt%3B%2Fspan%26gt%3B%22%20style%3D%22text%3Bhtml%3D1%3Balign%3Dcenter%3BverticalAlign%3Dmiddle%3BwhiteSpace%3Dwrap%3Brounded%3D0%3B%22%20vertex%3D%221%22%20parent%3D%221%22%3E%3CmxGeometry%20x%3D%22720%22%20y%3D%221137%22%20width%3D%22110%22%20height%3D%2230%22%20as%3D%22geometry%22%2F%3E%3C%2FmxCell%3E%3C%2Froot%3E%3C%2FmxGraphModel%3E&lt;/span&gt;&lt;span style=&quot;text-wrap: nowrap; color: rgba(0, 0, 0, 0); font-family: monospace; font-size: 0px; text-align: start;&quot;&gt;%3CmxGraphModel%3E%3Croot%3E%3CmxCell%20id%3D%220%22%2F%3E%3CmxCell%20id%3D%221%22%20parent%3D%220%22%2F%3E%3CmxCell%20id%3D%222%22%20value%3D%225.%20View%20Defaulter&#39;s%20List%26lt%3Bspan%20style%3D%26quot%3Bcolor%3A%20rgba(0%2C%200%2C%200%2C%200)%3B%20font-family%3A%20monospace%3B%20font-size%3A%200px%3B%20text-align%3A%20start%3B%20text-wrap%3A%20nowrap%3B%26quot%3B%26gt%3B%253CmxGraphModel%253E%253Croot%253E%253CmxCell%2520id%253D%25220%2522%252F%253E%253CmxCell%2520id%253D%25221%2522%2520parent%253D%25220%2522%252F%253E%253CmxCell%2520id%253D%25222%2522%2520value%253D%25222.%2520View%2520Attendance%2522%2520style%253D%2522text%253Bhtml%253D1%253Balign%253Dcenter%253BverticalAlign%253Dmiddle%253BwhiteSpace%253Dwrap%253Brounded%253D0%253B%2522%2520vertex%253D%25221%2522%2520parent%253D%25221%2522%253E%253CmxGeometry%2520x%253D%2522240%2522%2520y%253D%2522362.5%2522%2520width%253D%2522110%2522%2520height%253D%252230%2522%2520as%253D%2522geometry%2522%252F%253E%253C%252FmxCell%253E%253C%252Froot%253E%253C%252FmxGraphModel%253E%26lt%3B%2Fspan%26gt%3B%26lt%3Bspan%20style%3D%26quot%3Bcolor%3A%20rgba(0%2C%200%2C%200%2C%200)%3B%20font-family%3A%20monospace%3B%20font-size%3A%200px%3B%20text-align%3A%20start%3B%20text-wrap%3A%20nowrap%3B%26quot%3B%26gt%3B%253CmxGraphModel%253E%253Croot%253E%253CmxCell%2520id%253D%25220%2522%252F%253E%253CmxCell%2520id%253D%25221%2522%2520parent%253D%25220%2522%252F%253E%253CmxCell%2520id%253D%25222%2522%2520value%253D%25222.%2520View%2520Attendance%2522%2520style%253D%2522text%253Bhtml%253D1%253Balign%253Dcenter%253BverticalAlign%253Dmiddle%253BwhiteSpace%253Dwrap%253Brounded%253D0%253B%2522%2520vertex%253D%25221%2522%2520parent%253D%25221%2522%253E%253CmxGeometry%2520x%253D%2522240%2522%2520y%253D%2522362.5%2522%2520width%253D%2522110%2522%2520height%253D%252230%2522%2520as%253D%2522geometry%2522%252F%253E%253C%252FmxCell%253E%253C%252Froot%253E%253C%252FmxGraphModel%253E%26lt%3B%2Fspan%26gt%3B%26lt%3Bspan%20style%3D%26quot%3Bcolor%3A%20rgba(0%2C%200%2C%200%2C%200)%3B%20font-family%3A%20monospace%3B%20font-size%3A%200px%3B%20text-align%3A%20start%3B%20text-wrap%3A%20nowrap%3B%26quot%3B%26gt%3B%253CmxGraphModel%253E%253Croot%253E%253CmxCell%2520id%253D%25220%2522%252F%253E%253CmxCell%2520id%253D%25221%2522%2520parent%253D%25220%2522%252F%253E%253CmxCell%2520id%253D%25222%2522%2520value%253D%25222.%2520View%2520Attendance%2522%2520style%253D%2522text%253Bhtml%253D1%253Balign%253Dcenter%253BverticalAlign%253Dmiddle%253BwhiteSpace%253Dwrap%253Brounded%253D0%253B%2522%2520vertex%253D%25221%2522%2520parent%253D%25221%2522%253E%253CmxGeometry%2520x%253D%2522240%2522%2520y%253D%2522362.5%2522%2520width%253D%2522110%2522%2520height%253D%252230%2522%2520as%253D%2522geometry%2522%252F%253E%253C%252FmxCell%253E%253C%252Froot%253E%253C%25%26lt%3B%2Fspan%26gt%3B%22%20style%3D%22text%3Bhtml%3D1%3Balign%3Dcenter%3BverticalAlign%3Dmiddle%3BwhiteSpace%3Dwrap%3Brounded%3D0%3B%22%20vertex%3D%221%22%20parent%3D%221%22%3E%3CmxGeometry%20x%3D%22720%22%20y%3D%221137%22%20width%3D%22110%22%20height%3D%2230%22%20as%3D%22geometry%22%2F%3E%3C%2FmxCell%3E%3C%2Froot%3E%3C%2FmxGraphModel%3E&lt;/span&gt;&lt;span style=&quot;text-wrap: nowrap; color: rgba(0, 0, 0, 0); font-family: monospace; font-size: 0px; text-align: start;&quot;&gt;%3CmxGraphModel%3E%3Croot%3E%3CmxCell%20id%3D%220%22%2F%3E%3CmxCell%20id%3D%221%22%20parent%3D%220%22%2F%3E%3CmxCell%20id%3D%222%22%20value%3D%225.%20View%20Defaulter&#39;s%20List%26lt%3Bspan%20style%3D%26quot%3Bcolor%3A%20rgba(0%2C%200%2C%200%2C%200)%3B%20font-family%3A%20monospace%3B%20font-size%3A%200px%3B%20text-align%3A%20start%3B%20text-wrap%3A%20nowrap%3B%26quot%3B%26gt%3B%253CmxGraphModel%253E%253Croot%253E%253CmxCell%2520id%253D%25220%2522%252F%253E%253CmxCell%2520id%253D%25221%2522%2520parent%253D%25220%2522%252F%253E%253CmxCell%2520id%253D%25222%2522%2520value%253D%25222.%2520View%2520Attendance%2522%2520style%253D%2522text%253Bhtml%253D1%253Balign%253Dcenter%253BverticalAlign%253Dmiddle%253BwhiteSpace%253Dwrap%253Brounded%253D0%253B%2522%2520vertex%253D%25221%2522%2520parent%253D%25221%2522%253E%253CmxGeometry%2520x%253D%2522240%2522%2520y%253D%2522362.5%2522%2520width%253D%2522110%2522%2520height%253D%252230%2522%2520as%253D%2522geometry%2522%252F%253E%253C%252FmxCell%253E%253C%252Froot%253E%253C%252FmxGraphModel%253E%26lt%3B%2Fspan%26gt%3B%26lt%3Bspan%20style%3D%26quot%3Bcolor%3A%20rgba(0%2C%200%2C%200%2C%200)%3B%20font-family%3A%20monospace%3B%20font-size%3A%200px%3B%20text-align%3A%20start%3B%20text-wrap%3A%20nowrap%3B%26quot%3B%26gt%3B%253CmxGraphModel%253E%253Croot%253E%253CmxCell%2520id%253D%25220%2522%252F%253E%253CmxCell%2520id%253D%25221%2522%2520parent%253D%25220%2522%252F%253E%253CmxCell%2520id%253D%25222%2522%2520value%253D%25222.%2520View%2520Attendance%2522%2520style%253D%2522text%253Bhtml%253D1%253Balign%253Dcenter%253BverticalAlign%253Dmiddle%253BwhiteSpace%253Dwrap%253Brounded%253D0%253B%2522%2520vertex%253D%25221%2522%2520parent%253D%25221%2522%253E%253CmxGeometry%2520x%253D%2522240%2522%2520y%253D%2522362.5%2522%2520width%253D%2522110%2522%2520height%253D%252230%2522%2520as%253D%2522geometry%2522%252F%253E%253C%252FmxCell%253E%253C%252Froot%253E%253C%252FmxGraphModel%253E%26lt%3B%2Fspan%26gt%3B%26lt%3Bspan%20style%3D%26quot%3Bcolor%3A%20rgba(0%2C%200%2C%200%2C%200)%3B%20font-family%3A%20monospace%3B%20font-size%3A%200px%3B%20text-align%3A%20start%3B%20text-wrap%3A%20nowrap%3B%26quot%3B%26gt%3B%253CmxGraphModel%253E%253Croot%253E%253CmxCell%2520id%253D%25220%2522%252F%253E%253CmxCell%2520id%253D%25221%2522%2520parent%253D%25220%2522%252F%253E%253CmxCell%2520id%253D%25222%2522%2520value%253D%25222.%2520View%2520Attendance%2522%2520style%253D%2522text%253Bhtml%253D1%253Balign%253Dcenter%253BverticalAlign%253Dmiddle%253BwhiteSpace%253Dwrap%253Brounded%253D0%253B%2522%2520vertex%253D%25221%2522%2520parent%253D%25221%2522%253E%253CmxGeometry%2520x%253D%2522240%2522%2520y%253D%2522362.5%2522%2520width%253D%2522110%2522%2520height%253D%252230%2522%2520as%253D%2522geometry%2522%252F%253E%253C%252FmxCell%253E%253C%252Froot%253E%253C%25%26lt%3B%2Fspan%26gt%3B%22%20style%3D%22text%3Bhtml%3D1%3Balign%3Dcenter%3BverticalAlign%3Dmiddle%3BwhiteSpace%3Dwrap%3Brounded%3D0%3B%22%20vertex%3D%221%22%20parent%3D%221%22%3E%3CmxGeometry%20x%3D%22720%22%20y%3D%221137%22%20width%3D%22110%22%20height%3D%2230%22%20as%3D%22geometry%22%2F%3E%3C%2FmxCell%3E%3C%2Froot%3E%3C%2FmxGraphModel%3E&lt;/span&gt;&lt;span style=&quot;text-wrap: nowrap; color: rgba(0, 0, 0, 0); font-family: monospace; font-size: 0px; text-align: start;&quot;&gt;%3CmxGraphModel%3E%3Croot%3E%3CmxCell%20id%3D%220%22%2F%3E%3CmxCell%20id%3D%221%22%20parent%3D%220%22%2F%3E%3CmxCell%20id%3D%222%22%20value%3D%225.%20View%20Defaulter&#39;s%20List%26lt%3Bspan%20style%3D%26quot%3Bcolor%3A%20rgba(0%2C%200%2C%200%2C%200)%3B%20font-family%3A%20monospace%3B%20font-size%3A%200px%3B%20text-align%3A%20start%3B%20text-wrap%3A%20nowrap%3B%26quot%3B%26gt%3B%253CmxGraphModel%253E%253Croot%253E%253CmxCell%2520id%253D%25220%2522%252F%253E%253CmxCell%2520id%253D%25221%2522%2520parent%253D%25220%2522%252F%253E%253CmxCell%2520id%253D%25222%2522%2520value%253D%25222.%2520View%2520Attendance%2522%2520style%253D%2522text%253Bhtml%253D1%253Balign%253Dcenter%253BverticalAlign%253Dmiddle%253BwhiteSpace%253Dwrap%253Brounded%253D0%253B%2522%2520vertex%253D%25221%2522%2520parent%253D%25221%2522%253E%253CmxGeometry%2520x%253D%2522240%2522%2520y%253D%2522362.5%2522%2520width%253D%2522110%2522%2520height%253D%252230%2522%2520as%253D%2522geometry%2522%252F%253E%253C%252FmxCell%253E%253C%252Froot%253E%253C%252FmxGraphModel%253E%26lt%3B%2Fspan%26gt%3B%26lt%3Bspan%20style%3D%26quot%3Bcolor%3A%20rgba(0%2C%200%2C%200%2C%200)%3B%20font-family%3A%20monospace%3B%20font-size%3A%200px%3B%20text-align%3A%20start%3B%20text-wrap%3A%20nowrap%3B%26quot%3B%26gt%3B%253CmxGraphModel%253E%253Croot%253E%253CmxCell%2520id%253D%25220%2522%252F%253E%253CmxCell%2520id%253D%25221%2522%2520parent%253D%25220%2522%252F%253E%253CmxCell%2520id%253D%25222%2522%2520value%253D%25222.%2520View%2520Attendance%2522%2520style%253D%2522text%253Bhtml%253D1%253Balign%253Dcenter%253BverticalAlign%253Dmiddle%253BwhiteSpace%253Dwrap%253Brounded%253D0%253B%2522%2520vertex%253D%25221%2522%2520parent%253D%25221%2522%253E%253CmxGeometry%2520x%253D%2522240%2522%2520y%253D%2522362.5%2522%2520width%253D%2522110%2522%2520height%253D%252230%2522%2520as%253D%2522geometry%2522%252F%253E%253C%252FmxCell%253E%253C%252Froot%253E%253C%252FmxGraphModel%253E%26lt%3B%2Fspan%26gt%3B%26lt%3Bspan%20style%3D%26quot%3Bcolor%3A%20rgba(0%2C%200%2C%200%2C%200)%3B%20font-family%3A%20monospace%3B%20font-size%3A%200px%3B%20text-align%3A%20start%3B%20text-wrap%3A%20nowrap%3B%26quot%3B%26gt%3B%253CmxGraphModel%253E%253Croot%253E%253CmxCell%2520id%253D%25220%2522%252F%253E%253CmxCell%2520id%253D%25221%2522%2520parent%253D%25220%2522%252F%253E%253CmxCell%2520id%253D%25222%2522%2520value%253D%25222.%2520View%2520Attendance%2522%2520style%253D%2522text%253Bhtml%253D1%253Balign%253Dcenter%253BverticalAlign%253Dmiddle%253BwhiteSpace%253Dwrap%253Brounded%253D0%253B%2522%2520vertex%253D%25221%2522%2520parent%253D%25221%2522%253E%253CmxGeometry%2520x%253D%2522240%2522%2520y%253D%2522362.5%2522%2520width%253D%2522110%2522%2520height%253D%252230%2522%2520as%253D%2522geometry%2522%252F%253E%253C%252FmxCell%253E%253C%252Froot%253E%253C%25%26lt%3B%2Fspan%26gt%3B%22%20style%3D%22text%3Bhtml%3D1%3Balign%3Dcenter%3BverticalAlign%3Dmiddle%3BwhiteSpace%3Dwrap%3Brounded%3D0%3B%22%20vertex%3D%221%22%20parent%3D%221%22%3E%3CmxGeometry%20x%3D%22720%22%20y%3D%221137%22%20width%3D%22110%22%20height%3D%2230%22%20as%3D%22geometry%22%2F%3E%3C%2FmxCell%3E%3C%2Froot%3E%3C%2FmxGraphModel%3E&lt;/span&gt;&lt;span style=&quot;text-wrap: nowrap; color: rgba(0, 0, 0, 0); font-family: monospace; font-size: 0px; text-align: start;&quot;&gt;%3CmxGraphModel%3E%3Croot%3E%3CmxCell%20id%3D%220%22%2F%3E%3CmxCell%20id%3D%221%22%20parent%3D%220%22%2F%3E%3CmxCell%20id%3D%222%22%20value%3D%225.%20View%20Defaulter&#39;s%20List%26lt%3Bspan%20style%3D%26quot%3Bcolor%3A%20rgba(0%2C%200%2C%200%2C%200)%3B%20font-family%3A%20monospace%3B%20font-size%3A%200px%3B%20text-align%3A%20start%3B%20text-wrap%3A%20nowrap%3B%26quot%3B%26gt%3B%253CmxGraphModel%253E%253Croot%253E%253CmxCell%2520id%253D%25220%2522%252F%253E%253CmxCell%2520id%253D%25221%2522%2520parent%253D%25220%2522%252F%253E%253CmxCell%2520id%253D%25222%2522%2520value%253D%25222.%2520View%2520Attendance%2522%2520style%253D%2522text%253Bhtml%253D1%253Balign%253Dcenter%253BverticalAlign%253Dmiddle%253BwhiteSpace%253Dwrap%253Brounded%253D0%253B%2522%2520vertex%253D%25221%2522%2520parent%253D%25221%2522%253E%253CmxGeometry%2520x%253D%2522240%2522%2520y%253D%2522362.5%2522%2520width%253D%2522110%2522%2520height%253D%252230%2522%2520as%253D%2522geometry%2522%252F%253E%253C%252FmxCell%253E%253C%252Froot%253E%253C%252FmxGraphModel%253E%26lt%3B%2Fspan%26gt%3B%26lt%3Bspan%20style%3D%26quot%3Bcolor%3A%20rgba(0%2C%200%2C%200%2C%200)%3B%20font-family%3A%20monospace%3B%20font-size%3A%200px%3B%20text-align%3A%20start%3B%20text-wrap%3A%20nowrap%3B%26quot%3B%26gt%3B%253CmxGraphModel%253E%253Croot%253E%253CmxCell%2520id%253D%25220%2522%252F%253E%253CmxCell%2520id%253D%25221%2522%2520parent%253D%25220%2522%252F%253E%253CmxCell%2520id%253D%25222%2522%2520value%253D%25222.%2520View%2520Attendance%2522%2520style%253D%2522text%253Bhtml%253D1%253Balign%253Dcenter%253BverticalAlign%253Dmiddle%253BwhiteSpace%253Dwrap%253Brounded%253D0%253B%2522%2520vertex%253D%25221%2522%2520parent%253D%25221%2522%253E%253CmxGeometry%2520x%253D%2522240%2522%2520y%253D%2522362.5%2522%2520width%253D%2522110%2522%2520height%253D%252230%2522%2520as%253D%2522geometry%2522%252F%253E%253C%252FmxCell%253E%253C%252Froot%253E%253C%252FmxGraphModel%253E%26lt%3B%2Fspan%26gt%3B%26lt%3Bspan%20style%3D%26quot%3Bcolor%3A%20rgba(0%2C%200%2C%200%2C%200)%3B%20font-family%3A%20monospace%3B%20font-size%3A%200px%3B%20text-align%3A%20start%3B%20text-wrap%3A%20nowrap%3B%26quot%3B%26gt%3B%253CmxGraphModel%253E%253Croot%253E%253CmxCell%2520id%253D%25220%2522%252F%253E%253CmxCell%2520id%253D%25221%2522%2520parent%253D%25220%2522%252F%253E%253CmxCell%2520id%253D%25222%2522%2520value%253D%25222.%2520View%2520Attendance%2522%2520style%253D%2522text%253Bhtml%253D1%253Balign%253Dcenter%253BverticalAlign%253Dmiddle%253BwhiteSpace%253Dwrap%253Brounded%253D0%253B%2522%2520vertex%253D%25221%2522%2520parent%253D%25221%2522%253E%253CmxGeometry%2520x%253D%2522240%2522%2520y%253D%2522362.5%2522%2520width%253D%2522110%2522%2520height%253D%252230%2522%2520as%253D%2522geometry%2522%252F%253E%253C%252FmxCell%253E%253C%252Froot%253E%253C%25%26lt%3B%2Fspan%26gt%3B%22%20style%3D%22text%3Bhtml%3D1%3Balign%3Dcenter%3BverticalAlign%3Dmiddle%3BwhiteSpace%3Dwrap%3Brounded%3D0%3B%22%20vertex%3D%221%22%20parent%3D%221%22%3E%3CmxGeometry%20x%3D%22720%22%20y%3D%221137%22%20width%3D%22110%22%20height%3D%2230%22%20as%3D%22geometry%22%2F%3E%3C%2FmxCell%3E%3C%2Froot%3E%3C%2FmxGraphModel%3E&lt;/span&gt;ndance&lt;span style=&quot;text-wrap: nowrap; color: rgba(0, 0, 0, 0); font-family: monospace; font-size: 0px; text-align: start;&quot;&gt;%3CmxGraphModel%3E%3Croot%3E%3CmxCell%20id%3D%220%22%2F%3E%3CmxCell%20id%3D%221%22%20parent%3D%220%22%2F%3E%3CmxCell%20id%3D%222%22%20value%3D%225.%20View%20Defaulter&#39;s%20List%26lt%3Bspan%20style%3D%26quot%3Bcolor%3A%20rgba(0%2C%200%2C%200%2C%200)%3B%20font-family%3A%20monospace%3B%20font-size%3A%200px%3B%20text-align%3A%20start%3B%20text-wrap%3A%20nowrap%3B%26quot%3B%26gt%3B%253CmxGraphModel%253E%253Croot%253E%253CmxCell%2520id%253D%25220%2522%252F%253E%253CmxCell%2520id%253D%25221%2522%2520parent%253D%25220%2522%252F%253E%253CmxCell%2520id%253D%25222%2522%2520value%253D%25222.%2520View%2520Attendance%2522%2520style%253D%2522text%253Bhtml%253D1%253Balign%253Dcenter%253BverticalAlign%253Dmiddle%253BwhiteSpace%253Dwrap%253Brounded%253D0%253B%2522%2520vertex%253D%25221%2522%2520parent%253D%25221%2522%253E%253CmxGeometry%2520x%253D%2522240%2522%2520y%253D%2522362.5%2522%2520width%253D%2522110%2522%2520height%253D%252230%2522%2520as%253D%2522geometry%2522%252F%253E%253C%252FmxCell%253E%253C%252Froot%253E%253C%252FmxGraphModel%253E%26lt%3B%2Fspan%26gt%3B%26lt%3Bspan%20style%3D%26quot%3Bcolor%3A%20rgba(0%2C%200%2C%200%2C%200)%3B%20font-family%3A%20monospace%3B%20font-size%3A%200px%3B%20text-align%3A%20start%3B%20text-wrap%3A%20nowrap%3B%26quot%3B%26gt%3B%253CmxGraphModel%253E%253Croot%253E%253CmxCell%2520id%253D%25220%2522%252F%253E%253CmxCell%2520id%253D%25221%2522%2520parent%253D%25220%2522%252F%253E%253CmxCell%2520id%253D%25222%2522%2520value%253D%25222.%2520View%2520Attendance%2522%2520style%253D%2522text%253Bhtml%253D1%253Balign%253Dcenter%253BverticalAlign%253Dmiddle%253BwhiteSpace%253Dwrap%253Brounded%253D0%253B%2522%2520vertex%253D%25221%2522%2520parent%253D%25221%2522%253E%253CmxGeometry%2520x%253D%2522240%2522%2520y%253D%2522362.5%2522%2520width%253D%2522110%2522%2520height%253D%252230%2522%2520as%253D%2522geometry%2522%252F%253E%253C%252FmxCell%253E%253C%252Froot%253E%253C%252FmxGraphModel%253E%26lt%3B%2Fspan%26gt%3B%26lt%3Bspan%20style%3D%26quot%3Bcolor%3A%20rgba(0%2C%200%2C%200%2C%200)%3B%20font-family%3A%20monospace%3B%20font-size%3A%200px%3B%20text-align%3A%20start%3B%20text-wrap%3A%20nowrap%3B%26quot%3B%26gt%3B%253CmxGraphModel%253E%253Croot%253E%253CmxCell%2520id%253D%25220%2522%252F%253E%253CmxCell%2520id%253D%25221%2522%2520parent%253D%25220%2522%252F%253E%253CmxCell%2520id%253D%25222%2522%2520value%253D%25222.%2520View%2520Attendance%2522%2520style%253D%2522text%253Bhtml%253D1%253Balign%253Dcenter%253BverticalAlign%253Dmiddle%253BwhiteSpace%253Dwrap%253Brounded%253D0%253B%2522%2520vertex%253D%25221%2522%2520parent%253D%25221%2522%253E%253CmxGeometry%2520x%253D%2522240%2522%2520y%253D%2522362.5%2522%2520width%253D%2522110%2522%2520height%253D%252230%2522%2520as%253D%2522geometry%2522%252F%253E%253C%252FmxCell%253E%253C%252Froot%253E%253C%25%26lt%3B%2Fspan%26gt%3B%22%20style%3D%22text%3Bhtml%3D1%3Balign%3Dcenter%3BverticalAlign%3Dmiddle%3BwhiteSpace%3Dwrap%3Brounded%3D0%3B%22%20vertex%3D%221%22%20parent%3D%221%22%3E%3CmxGeometry%20x%3D%22720%22%20y%3D%221137%22%20width%3D%22110%22%20height%3D%2230%22%20as%3D%22geometry%22%2F%3E%3C%2FmxCell%3E%3C%2Froot%3E%3C%2FmxGraphModel%3E&lt;/span&gt;" style="text;html=1;align=center;verticalAlign=middle;whiteSpace=wrap;rounded=0;" vertex="1" parent="1">
          <mxGeometry x="866" y="1176" width="110" height="30" as="geometry" />
        </mxCell>
        <mxCell id="ZCRnJ9vzYanFj2SS8UY6-170" value="7. Store Attendance in DB" style="text;html=1;align=center;verticalAlign=middle;whiteSpace=wrap;rounded=0;" vertex="1" parent="1">
          <mxGeometry x="1020" y="1176" width="110" height="30" as="geometry" />
        </mxCell>
        <mxCell id="ZCRnJ9vzYanFj2SS8UY6-171" value="" style="rounded=0;whiteSpace=wrap;html=1;strokeWidth=2;" vertex="1" parent="1">
          <mxGeometry x="101" y="1623" width="1200" height="530" as="geometry" />
        </mxCell>
        <mxCell id="ZCRnJ9vzYanFj2SS8UY6-172" value="" style="rounded=0;whiteSpace=wrap;html=1;fontStyle=1;strokeWidth=2;" vertex="1" parent="1">
          <mxGeometry x="171" y="1733" width="1040" height="186.75" as="geometry" />
        </mxCell>
        <mxCell id="ZCRnJ9vzYanFj2SS8UY6-173" value="Office Staff" style="rounded=0;whiteSpace=wrap;html=1;" vertex="1" parent="1">
          <mxGeometry x="161" y="1560" width="120" height="40" as="geometry" />
        </mxCell>
        <mxCell id="ZCRnJ9vzYanFj2SS8UY6-174" value="Application" style="rounded=0;whiteSpace=wrap;html=1;" vertex="1" parent="1">
          <mxGeometry x="343" y="1560" width="120" height="40" as="geometry" />
        </mxCell>
        <mxCell id="ZCRnJ9vzYanFj2SS8UY6-175" value="Database" style="rounded=0;whiteSpace=wrap;html=1;" vertex="1" parent="1">
          <mxGeometry x="1108" y="1560" width="120" height="40" as="geometry" />
        </mxCell>
        <mxCell id="ZCRnJ9vzYanFj2SS8UY6-176" value="" style="endArrow=none;dashed=1;html=1;rounded=0;entryX=0.5;entryY=1;entryDx=0;entryDy=0;exitX=0.5;exitY=0;exitDx=0;exitDy=0;" edge="1" parent="1" source="ZCRnJ9vzYanFj2SS8UY6-217" target="ZCRnJ9vzYanFj2SS8UY6-173">
          <mxGeometry width="50" height="50" relative="1" as="geometry">
            <mxPoint x="221" y="1960" as="sourcePoint" />
            <mxPoint x="211" y="1680" as="targetPoint" />
          </mxGeometry>
        </mxCell>
        <mxCell id="ZCRnJ9vzYanFj2SS8UY6-179" value="" style="endArrow=none;dashed=1;html=1;rounded=0;entryX=0.5;entryY=1;entryDx=0;entryDy=0;exitX=0.5;exitY=0;exitDx=0;exitDy=0;" edge="1" parent="1" source="ZCRnJ9vzYanFj2SS8UY6-222">
          <mxGeometry width="50" height="50" relative="1" as="geometry">
            <mxPoint x="403" y="1960" as="sourcePoint" />
            <mxPoint x="403" y="1600" as="targetPoint" />
          </mxGeometry>
        </mxCell>
        <mxCell id="ZCRnJ9vzYanFj2SS8UY6-180" value="" style="endArrow=classic;html=1;rounded=0;exitX=1;exitY=0;exitDx=0;exitDy=0;entryX=0;entryY=0;entryDx=0;entryDy=0;" edge="1" parent="1" source="ZCRnJ9vzYanFj2SS8UY6-204" target="ZCRnJ9vzYanFj2SS8UY6-201">
          <mxGeometry width="50" height="50" relative="1" as="geometry">
            <mxPoint x="441" y="1820" as="sourcePoint" />
            <mxPoint x="491" y="1770" as="targetPoint" />
          </mxGeometry>
        </mxCell>
        <mxCell id="ZCRnJ9vzYanFj2SS8UY6-181" value="" style="endArrow=none;dashed=1;html=1;rounded=0;entryX=0.5;entryY=1;entryDx=0;entryDy=0;exitX=0.5;exitY=0;exitDx=0;exitDy=0;" edge="1" parent="1" source="ZCRnJ9vzYanFj2SS8UY6-218">
          <mxGeometry width="50" height="50" relative="1" as="geometry">
            <mxPoint x="1168" y="2010" as="sourcePoint" />
            <mxPoint x="1168" y="1600" as="targetPoint" />
          </mxGeometry>
        </mxCell>
        <mxCell id="ZCRnJ9vzYanFj2SS8UY6-182" value="" style="rounded=0;whiteSpace=wrap;html=1;" vertex="1" parent="1">
          <mxGeometry x="1158" y="1667" width="20" height="233" as="geometry" />
        </mxCell>
        <mxCell id="ZCRnJ9vzYanFj2SS8UY6-183" value="1. Enter Credentials" style="text;html=1;align=center;verticalAlign=middle;whiteSpace=wrap;rounded=0;" vertex="1" parent="1">
          <mxGeometry x="261" y="1640" width="110" height="30" as="geometry" />
        </mxCell>
        <mxCell id="ZCRnJ9vzYanFj2SS8UY6-184" value="" style="endArrow=classic;html=1;rounded=0;entryX=0;entryY=0;entryDx=0;entryDy=0;exitX=1;exitY=0;exitDx=0;exitDy=0;" edge="1" parent="1" source="ZCRnJ9vzYanFj2SS8UY6-201" target="ZCRnJ9vzYanFj2SS8UY6-182">
          <mxGeometry width="50" height="50" relative="1" as="geometry">
            <mxPoint x="541" y="1670" as="sourcePoint" />
            <mxPoint x="741" y="1670" as="targetPoint" />
          </mxGeometry>
        </mxCell>
        <mxCell id="ZCRnJ9vzYanFj2SS8UY6-185" value="1.1. Check Credentials" style="text;html=1;align=center;verticalAlign=middle;whiteSpace=wrap;rounded=0;" vertex="1" parent="1">
          <mxGeometry x="571" y="1640" width="130" height="30" as="geometry" />
        </mxCell>
        <mxCell id="ZCRnJ9vzYanFj2SS8UY6-186" value="1.2. Response" style="text;html=1;align=center;verticalAlign=middle;whiteSpace=wrap;rounded=0;" vertex="1" parent="1">
          <mxGeometry x="571" y="1682" width="130" height="30" as="geometry" />
        </mxCell>
        <mxCell id="ZCRnJ9vzYanFj2SS8UY6-187" value="ALT" style="text;html=1;align=center;verticalAlign=middle;whiteSpace=wrap;rounded=0;" vertex="1" parent="1">
          <mxGeometry x="91" y="1620" width="60" height="30" as="geometry" />
        </mxCell>
        <mxCell id="ZCRnJ9vzYanFj2SS8UY6-188" value="[ CORRECT CREDENTIALS ]" style="text;html=1;align=center;verticalAlign=middle;whiteSpace=wrap;rounded=0;" vertex="1" parent="1">
          <mxGeometry x="228" y="1620" width="170" height="30" as="geometry" />
        </mxCell>
        <mxCell id="ZCRnJ9vzYanFj2SS8UY6-189" value="Verify Defaulter&#39;s List" style="rounded=0;whiteSpace=wrap;html=1;" vertex="1" parent="1">
          <mxGeometry x="511" y="1560" width="120" height="40" as="geometry" />
        </mxCell>
        <mxCell id="ZCRnJ9vzYanFj2SS8UY6-190" value="Publish Defaulter&#39;s List" style="rounded=0;whiteSpace=wrap;html=1;" vertex="1" parent="1">
          <mxGeometry x="651" y="1560" width="140" height="40" as="geometry" />
        </mxCell>
        <mxCell id="ZCRnJ9vzYanFj2SS8UY6-191" value="Resolve Complaint" style="rounded=0;whiteSpace=wrap;html=1;" vertex="1" parent="1">
          <mxGeometry x="801" y="1560" width="120" height="40" as="geometry" />
        </mxCell>
        <mxCell id="ZCRnJ9vzYanFj2SS8UY6-192" value="1.3. Successful Login" style="text;html=1;align=center;verticalAlign=middle;whiteSpace=wrap;rounded=0;" vertex="1" parent="1">
          <mxGeometry x="261" y="1688" width="110" height="30" as="geometry" />
        </mxCell>
        <mxCell id="ZCRnJ9vzYanFj2SS8UY6-193" value="" style="endArrow=none;dashed=1;html=1;rounded=0;entryX=0.5;entryY=1;entryDx=0;entryDy=0;exitX=0.5;exitY=0;exitDx=0;exitDy=0;" edge="1" parent="1" source="ZCRnJ9vzYanFj2SS8UY6-209">
          <mxGeometry width="50" height="50" relative="1" as="geometry">
            <mxPoint x="721" y="1950" as="sourcePoint" />
            <mxPoint x="720.68" y="1600" as="targetPoint" />
          </mxGeometry>
        </mxCell>
        <mxCell id="ZCRnJ9vzYanFj2SS8UY6-194" value="" style="endArrow=none;dashed=1;html=1;rounded=0;entryX=0.5;entryY=1;entryDx=0;entryDy=0;" edge="1" parent="1" source="ZCRnJ9vzYanFj2SS8UY6-199">
          <mxGeometry width="50" height="50" relative="1" as="geometry">
            <mxPoint x="860.52" y="2010" as="sourcePoint" />
            <mxPoint x="860.52" y="1600" as="targetPoint" />
          </mxGeometry>
        </mxCell>
        <mxCell id="ZCRnJ9vzYanFj2SS8UY6-195" value="" style="endArrow=none;dashed=1;html=1;rounded=0;entryX=0.5;entryY=1;entryDx=0;entryDy=0;exitX=0.5;exitY=0;exitDx=0;exitDy=0;" edge="1" parent="1" source="ZCRnJ9vzYanFj2SS8UY6-208" target="ZCRnJ9vzYanFj2SS8UY6-196">
          <mxGeometry width="50" height="50" relative="1" as="geometry">
            <mxPoint x="571" y="1940" as="sourcePoint" />
            <mxPoint x="570.68" y="1600" as="targetPoint" />
            <Array as="points">
              <mxPoint x="571" y="1870" />
            </Array>
          </mxGeometry>
        </mxCell>
        <mxCell id="ZCRnJ9vzYanFj2SS8UY6-237" style="edgeStyle=orthogonalEdgeStyle;rounded=0;orthogonalLoop=1;jettySize=auto;html=1;entryX=0;entryY=0.5;entryDx=0;entryDy=0;" edge="1" parent="1" source="ZCRnJ9vzYanFj2SS8UY6-196" target="ZCRnJ9vzYanFj2SS8UY6-197">
          <mxGeometry relative="1" as="geometry" />
        </mxCell>
        <mxCell id="ZCRnJ9vzYanFj2SS8UY6-196" value="" style="rounded=0;whiteSpace=wrap;html=1;" vertex="1" parent="1">
          <mxGeometry x="561" y="1753" width="20" height="18.5" as="geometry" />
        </mxCell>
        <mxCell id="ZCRnJ9vzYanFj2SS8UY6-197" value="" style="rounded=0;whiteSpace=wrap;html=1;" vertex="1" parent="1">
          <mxGeometry x="711" y="1753" width="20" height="20" as="geometry" />
        </mxCell>
        <mxCell id="ZCRnJ9vzYanFj2SS8UY6-198" value="" style="endArrow=none;dashed=1;html=1;rounded=0;entryX=0.5;entryY=1;entryDx=0;entryDy=0;" edge="1" parent="1" source="ZCRnJ9vzYanFj2SS8UY6-210" target="ZCRnJ9vzYanFj2SS8UY6-199">
          <mxGeometry width="50" height="50" relative="1" as="geometry">
            <mxPoint x="861" y="1950" as="sourcePoint" />
            <mxPoint x="860.52" y="1600" as="targetPoint" />
          </mxGeometry>
        </mxCell>
        <mxCell id="ZCRnJ9vzYanFj2SS8UY6-199" value="" style="rounded=0;whiteSpace=wrap;html=1;" vertex="1" parent="1">
          <mxGeometry x="851" y="1779" width="20" height="55" as="geometry" />
        </mxCell>
        <mxCell id="ZCRnJ9vzYanFj2SS8UY6-200" style="edgeStyle=orthogonalEdgeStyle;rounded=0;orthogonalLoop=1;jettySize=auto;html=1;entryX=1.082;entryY=0.094;entryDx=0;entryDy=0;entryPerimeter=0;" edge="1" parent="1">
          <mxGeometry relative="1" as="geometry">
            <mxPoint x="1158" y="1684.04" as="sourcePoint" />
            <mxPoint x="414.64" y="1682.002" as="targetPoint" />
            <Array as="points">
              <mxPoint x="1158" y="1682" />
            </Array>
          </mxGeometry>
        </mxCell>
        <mxCell id="ZCRnJ9vzYanFj2SS8UY6-201" value="" style="rounded=0;whiteSpace=wrap;html=1;" vertex="1" parent="1">
          <mxGeometry x="393" y="1667" width="20" height="233" as="geometry" />
        </mxCell>
        <mxCell id="ZCRnJ9vzYanFj2SS8UY6-202" style="edgeStyle=orthogonalEdgeStyle;rounded=0;orthogonalLoop=1;jettySize=auto;html=1;entryX=0;entryY=0.5;entryDx=0;entryDy=0;" edge="1" parent="1" target="ZCRnJ9vzYanFj2SS8UY6-199">
          <mxGeometry relative="1" as="geometry">
            <Array as="points">
              <mxPoint x="541" y="1807" />
            </Array>
            <mxPoint x="230.99999999999977" y="1806.4705882352944" as="sourcePoint" />
          </mxGeometry>
        </mxCell>
        <mxCell id="ZCRnJ9vzYanFj2SS8UY6-203" style="edgeStyle=orthogonalEdgeStyle;rounded=0;orthogonalLoop=1;jettySize=auto;html=1;entryX=0;entryY=0.5;entryDx=0;entryDy=0;" edge="1" parent="1" source="ZCRnJ9vzYanFj2SS8UY6-204" target="ZCRnJ9vzYanFj2SS8UY6-233">
          <mxGeometry relative="1" as="geometry">
            <Array as="points">
              <mxPoint x="421" y="1877" />
              <mxPoint x="421" y="1877" />
            </Array>
          </mxGeometry>
        </mxCell>
        <mxCell id="ZCRnJ9vzYanFj2SS8UY6-204" value="" style="rounded=0;whiteSpace=wrap;html=1;" vertex="1" parent="1">
          <mxGeometry x="211" y="1667" width="20" height="233" as="geometry" />
        </mxCell>
        <mxCell id="ZCRnJ9vzYanFj2SS8UY6-205" value="" style="endArrow=none;dashed=1;html=1;rounded=0;entryX=0.5;entryY=1;entryDx=0;entryDy=0;" edge="1" parent="1" source="ZCRnJ9vzYanFj2SS8UY6-196">
          <mxGeometry width="50" height="50" relative="1" as="geometry">
            <mxPoint x="570.68" y="2010" as="sourcePoint" />
            <mxPoint x="570.68" y="1600" as="targetPoint" />
          </mxGeometry>
        </mxCell>
        <mxCell id="ZCRnJ9vzYanFj2SS8UY6-206" value="PAR" style="text;html=1;align=center;verticalAlign=middle;whiteSpace=wrap;rounded=0;" vertex="1" parent="1">
          <mxGeometry x="161" y="1733" width="60" height="30" as="geometry" />
        </mxCell>
        <mxCell id="ZCRnJ9vzYanFj2SS8UY6-207" style="edgeStyle=orthogonalEdgeStyle;rounded=0;orthogonalLoop=1;jettySize=auto;html=1;entryX=1;entryY=0.148;entryDx=0;entryDy=0;entryPerimeter=0;" edge="1" parent="1">
          <mxGeometry relative="1" as="geometry">
            <mxPoint x="393" y="1682.032258064516" as="sourcePoint" />
            <mxPoint x="231" y="1682.004" as="targetPoint" />
            <Array as="points">
              <mxPoint x="351" y="1682" />
              <mxPoint x="351" y="1682" />
            </Array>
          </mxGeometry>
        </mxCell>
        <mxCell id="ZCRnJ9vzYanFj2SS8UY6-208" value="X" style="text;html=1;align=center;verticalAlign=middle;whiteSpace=wrap;rounded=0;" vertex="1" parent="1">
          <mxGeometry x="561" y="1960" width="20" height="10" as="geometry" />
        </mxCell>
        <mxCell id="ZCRnJ9vzYanFj2SS8UY6-209" value="X" style="text;html=1;align=center;verticalAlign=middle;whiteSpace=wrap;rounded=0;" vertex="1" parent="1">
          <mxGeometry x="711" y="1962.5" width="20" height="5" as="geometry" />
        </mxCell>
        <mxCell id="ZCRnJ9vzYanFj2SS8UY6-210" value="X" style="text;html=1;align=center;verticalAlign=middle;whiteSpace=wrap;rounded=0;" vertex="1" parent="1">
          <mxGeometry x="851" y="1960" width="20" height="10" as="geometry" />
        </mxCell>
        <mxCell id="ZCRnJ9vzYanFj2SS8UY6-211" value="" style="endArrow=none;dashed=1;html=1;rounded=0;exitX=-0.003;exitY=0.671;exitDx=0;exitDy=0;exitPerimeter=0;entryX=1;entryY=0.671;entryDx=0;entryDy=0;entryPerimeter=0;" edge="1" parent="1" source="ZCRnJ9vzYanFj2SS8UY6-171" target="ZCRnJ9vzYanFj2SS8UY6-171">
          <mxGeometry width="50" height="50" relative="1" as="geometry">
            <mxPoint x="521" y="1920" as="sourcePoint" />
            <mxPoint x="571" y="1870" as="targetPoint" />
          </mxGeometry>
        </mxCell>
        <mxCell id="ZCRnJ9vzYanFj2SS8UY6-212" style="edgeStyle=orthogonalEdgeStyle;rounded=0;orthogonalLoop=1;jettySize=auto;html=1;" edge="1" parent="1">
          <mxGeometry relative="1" as="geometry">
            <mxPoint x="1158" y="2046" as="sourcePoint" />
            <mxPoint x="413" y="2046" as="targetPoint" />
            <Array as="points">
              <mxPoint x="971" y="2046" />
              <mxPoint x="971" y="2046" />
            </Array>
          </mxGeometry>
        </mxCell>
        <mxCell id="ZCRnJ9vzYanFj2SS8UY6-213" value="" style="rounded=0;whiteSpace=wrap;html=1;" vertex="1" parent="1">
          <mxGeometry x="1158" y="1990" width="20" height="70" as="geometry" />
        </mxCell>
        <mxCell id="ZCRnJ9vzYanFj2SS8UY6-214" value="X" style="text;html=1;align=center;verticalAlign=middle;whiteSpace=wrap;rounded=0;" vertex="1" parent="1">
          <mxGeometry x="393" y="2105" width="20" height="10" as="geometry" />
        </mxCell>
        <mxCell id="ZCRnJ9vzYanFj2SS8UY6-215" value="X" style="text;html=1;align=center;verticalAlign=middle;whiteSpace=wrap;rounded=0;" vertex="1" parent="1">
          <mxGeometry x="211" y="2110" width="20" height="10" as="geometry" />
        </mxCell>
        <mxCell id="ZCRnJ9vzYanFj2SS8UY6-216" value="" style="endArrow=none;dashed=1;html=1;rounded=0;entryX=0.5;entryY=1;entryDx=0;entryDy=0;exitX=0.5;exitY=0;exitDx=0;exitDy=0;" edge="1" parent="1" source="ZCRnJ9vzYanFj2SS8UY6-215" target="ZCRnJ9vzYanFj2SS8UY6-217">
          <mxGeometry width="50" height="50" relative="1" as="geometry">
            <mxPoint x="221" y="2110" as="sourcePoint" />
            <mxPoint x="221" y="1600" as="targetPoint" />
          </mxGeometry>
        </mxCell>
        <mxCell id="ZCRnJ9vzYanFj2SS8UY6-217" value="" style="rounded=0;whiteSpace=wrap;html=1;" vertex="1" parent="1">
          <mxGeometry x="211" y="1990" width="20" height="93" as="geometry" />
        </mxCell>
        <mxCell id="ZCRnJ9vzYanFj2SS8UY6-218" value="X" style="text;html=1;align=center;verticalAlign=middle;whiteSpace=wrap;rounded=0;" vertex="1" parent="1">
          <mxGeometry x="1158" y="2100" width="20" height="10" as="geometry" />
        </mxCell>
        <mxCell id="ZCRnJ9vzYanFj2SS8UY6-219" value="" style="endArrow=none;dashed=1;html=1;rounded=0;entryX=0.5;entryY=1;entryDx=0;entryDy=0;exitX=0.5;exitY=0;exitDx=0;exitDy=0;" edge="1" parent="1" source="ZCRnJ9vzYanFj2SS8UY6-214" target="ZCRnJ9vzYanFj2SS8UY6-222">
          <mxGeometry width="50" height="50" relative="1" as="geometry">
            <mxPoint x="403" y="2105" as="sourcePoint" />
            <mxPoint x="403" y="1600" as="targetPoint" />
          </mxGeometry>
        </mxCell>
        <mxCell id="ZCRnJ9vzYanFj2SS8UY6-220" style="edgeStyle=orthogonalEdgeStyle;rounded=0;orthogonalLoop=1;jettySize=auto;html=1;entryX=0.024;entryY=0.432;entryDx=0;entryDy=0;entryPerimeter=0;" edge="1" parent="1" source="ZCRnJ9vzYanFj2SS8UY6-222" target="ZCRnJ9vzYanFj2SS8UY6-213">
          <mxGeometry relative="1" as="geometry">
            <Array as="points">
              <mxPoint x="591" y="2020" />
              <mxPoint x="591" y="2020" />
            </Array>
          </mxGeometry>
        </mxCell>
        <mxCell id="ZCRnJ9vzYanFj2SS8UY6-221" style="edgeStyle=orthogonalEdgeStyle;rounded=0;orthogonalLoop=1;jettySize=auto;html=1;" edge="1" parent="1">
          <mxGeometry relative="1" as="geometry">
            <mxPoint x="393" y="2060.5" as="sourcePoint" />
            <mxPoint x="231" y="2060.5" as="targetPoint" />
          </mxGeometry>
        </mxCell>
        <mxCell id="ZCRnJ9vzYanFj2SS8UY6-222" value="" style="rounded=0;whiteSpace=wrap;html=1;" vertex="1" parent="1">
          <mxGeometry x="393" y="1990" width="20" height="93" as="geometry" />
        </mxCell>
        <mxCell id="ZCRnJ9vzYanFj2SS8UY6-223" style="edgeStyle=orthogonalEdgeStyle;rounded=0;orthogonalLoop=1;jettySize=auto;html=1;entryX=0.029;entryY=0.112;entryDx=0;entryDy=0;entryPerimeter=0;" edge="1" parent="1" source="ZCRnJ9vzYanFj2SS8UY6-217" target="ZCRnJ9vzYanFj2SS8UY6-222">
          <mxGeometry relative="1" as="geometry">
            <Array as="points">
              <mxPoint x="312" y="2000" />
            </Array>
          </mxGeometry>
        </mxCell>
        <mxCell id="ZCRnJ9vzYanFj2SS8UY6-224" value="1. Enter Credentials" style="text;html=1;align=center;verticalAlign=middle;whiteSpace=wrap;rounded=0;" vertex="1" parent="1">
          <mxGeometry x="251" y="1978" width="110" height="30" as="geometry" />
        </mxCell>
        <mxCell id="ZCRnJ9vzYanFj2SS8UY6-225" value="1.1. Check Credentials" style="text;html=1;align=center;verticalAlign=middle;whiteSpace=wrap;rounded=0;" vertex="1" parent="1">
          <mxGeometry x="631" y="1998" width="130" height="30" as="geometry" />
        </mxCell>
        <mxCell id="ZCRnJ9vzYanFj2SS8UY6-226" value="1.2. Response" style="text;html=1;align=center;verticalAlign=middle;whiteSpace=wrap;rounded=0;" vertex="1" parent="1">
          <mxGeometry x="631" y="2024" width="130" height="30" as="geometry" />
        </mxCell>
        <mxCell id="ZCRnJ9vzYanFj2SS8UY6-227" value="1.3. Re-Login" style="text;html=1;align=center;verticalAlign=middle;whiteSpace=wrap;rounded=0;" vertex="1" parent="1">
          <mxGeometry x="258" y="2039" width="110" height="30" as="geometry" />
        </mxCell>
        <mxCell id="ZCRnJ9vzYanFj2SS8UY6-228" value="2.1. Verify Defaulter&#39;s List" style="text;html=1;align=center;verticalAlign=middle;whiteSpace=wrap;rounded=0;" vertex="1" parent="1">
          <mxGeometry x="419" y="1735.5" width="141" height="30" as="geometry" />
        </mxCell>
        <mxCell id="ZCRnJ9vzYanFj2SS8UY6-229" value="2.2 Publish Defaulter&#39;s List&lt;span style=&quot;color: rgba(0, 0, 0, 0); font-family: monospace; font-size: 0px; text-align: start; text-wrap: nowrap;&quot;&gt;%3CmxGraphModel%3E%3Croot%3E%3CmxCell%20id%3D%220%22%2F%3E%3CmxCell%20id%3D%221%22%20parent%3D%220%22%2F%3E%3CmxCell%20id%3D%222%22%20value%3D%222.%20View%20Attendance%22%20style%3D%22text%3Bhtml%3D1%3Balign%3Dcenter%3BverticalAlign%3Dmiddle%3BwhiteSpace%3Dwrap%3Brounded%3D0%3B%22%20vertex%3D%221%22%20parent%3D%221%22%3E%3CmxGeometry%20x%3D%22240%22%20y%3D%22362.5%22%20width%3D%22110%22%20height%3D%2230%22%20as%3D%22geometry%22%2F%3E%3C%2FmxCell%3E%3C%2Froot%3E%3C%2FmxGraphModel%3E&lt;/span&gt;&lt;span style=&quot;color: rgba(0, 0, 0, 0); font-family: monospace; font-size: 0px; text-align: start; text-wrap: nowrap;&quot;&gt;%3CmxGraphModel%3E%3Croot%3E%3CmxCell%20id%3D%220%22%2F%3E%3CmxCell%20id%3D%221%22%20parent%3D%220%22%2F%3E%3CmxCell%20id%3D%222%22%20value%3D%222.%20View%20Attendance%22%20style%3D%22text%3Bhtml%3D1%3Balign%3Dcenter%3BverticalAlign%3Dmiddle%3BwhiteSpace%3Dwrap%3Brounded%3D0%3B%22%20vertex%3D%221%22%20parent%3D%221%22%3E%3CmxGeometry%20x%3D%22240%22%20y%3D%22362.5%22%20width%3D%22110%22%20height%3D%2230%22%20as%3D%22geometry%22%2F%3E%3C%2FmxCell%3E%3C%2Froot%3E%3C%2FmxGraphModel%3E&lt;/span&gt;&lt;span style=&quot;color: rgba(0, 0, 0, 0); font-family: monospace; font-size: 0px; text-align: start; text-wrap: nowrap;&quot;&gt;%3CmxGraphModel%3E%3Croot%3E%3CmxCell%20id%3D%220%22%2F%3E%3CmxCell%20id%3D%221%22%20parent%3D%220%22%2F%3E%3CmxCell%20id%3D%222%22%20value%3D%222.%20View%20Attendance%22%20style%3D%22text%3Bhtml%3D1%3Balign%3Dcenter%3BverticalAlign%3Dmiddle%3BwhiteSpace%3Dwrap%3Brounded%3D0%3B%22%20vertex%3D%221%22%20parent%3D%221%22%3E%3CmxGeometry%20x%3D%22240%22%20y%3D%22362.5%22%20width%3D%22110%22%20height%3D%2230%22%20as%3D%22geometry%22%2F%3E%3C%2FmxCell%3E%3C%2Froot%3E%3C%&lt;/span&gt;" style="text;html=1;align=center;verticalAlign=middle;whiteSpace=wrap;rounded=0;" vertex="1" parent="1">
          <mxGeometry x="580" y="1733.5" width="121" height="30" as="geometry" />
        </mxCell>
        <mxCell id="ZCRnJ9vzYanFj2SS8UY6-230" value="3.1. Resolve Complaint&lt;span style=&quot;color: rgba(0, 0, 0, 0); font-family: monospace; font-size: 0px; text-align: start; text-wrap: nowrap;&quot;&gt;%3CmxGraphModel%3E%3Croot%3E%3CmxCell%20id%3D%220%22%2F%3E%3CmxCell%20id%3D%221%22%20parent%3D%220%22%2F%3E%3CmxCell%20id%3D%222%22%20value%3D%222.%20View%20Attendance%22%20style%3D%22text%3Bhtml%3D1%3Balign%3Dcenter%3BverticalAlign%3Dmiddle%3BwhiteSpace%3Dwrap%3Brounded%3D0%3B%22%20vertex%3D%221%22%20parent%3D%221%22%3E%3CmxGeometry%20x%3D%22240%22%20y%3D%22362.5%22%20width%3D%22110%22%20height%3D%2230%22%20as%3D%22geometry%22%2F%3E%3C%2FmxCell%3E%3C%2Froot%3E%3C%2FmxGraphModel%3E&lt;/span&gt;&lt;span style=&quot;color: rgba(0, 0, 0, 0); font-family: monospace; font-size: 0px; text-align: start; text-wrap: nowrap;&quot;&gt;%3CmxGraphModel%3E%3Croot%3E%3CmxCell%20id%3D%220%22%2F%3E%3CmxCell%20id%3D%221%22%20parent%3D%220%22%2F%3E%3CmxCell%20id%3D%222%22%20value%3D%222.%20View%20Attendance%22%20style%3D%22text%3Bhtml%3D1%3Balign%3Dcenter%3BverticalAlign%3Dmiddle%3BwhiteSpace%3Dwrap%3Brounded%3D0%3B%22%20vertex%3D%221%22%20parent%3D%221%22%3E%3CmxGeometry%20x%3D%22240%22%20y%3D%22362.5%22%20width%3D%22110%22%20height%3D%2230%22%20as%3D%22geometry%22%2F%3E%3C%2FmxCell%3E%3C%2Froot%3E%3C%2FmxGraphModel%3E&lt;/span&gt;&lt;span style=&quot;color: rgba(0, 0, 0, 0); font-family: monospace; font-size: 0px; text-align: start; text-wrap: nowrap;&quot;&gt;%3CmxGraphModel%3E%3Croot%3E%3CmxCell%20id%3D%220%22%2F%3E%3CmxCell%20id%3D%221%22%20parent%3D%220%22%2F%3E%3CmxCell%20id%3D%222%22%20value%3D%222.%20View%20Attendance%22%20style%3D%22text%3Bhtml%3D1%3Balign%3Dcenter%3BverticalAlign%3Dmiddle%3BwhiteSpace%3Dwrap%3Brounded%3D0%3B%22%20vertex%3D%221%22%20parent%3D%221%22%3E%3CmxGeometry%20x%3D%22240%22%20y%3D%22362.5%22%20width%3D%22110%22%20height%3D%2230%22%20as%3D%22geometry%22%2F%3E%3C%2FmxCell%3E%3C%2Froot%3E%3C&lt;/span&gt;" style="text;html=1;align=center;verticalAlign=middle;whiteSpace=wrap;rounded=0;" vertex="1" parent="1">
          <mxGeometry x="729" y="1778" width="119" height="30" as="geometry" />
        </mxCell>
        <mxCell id="ZCRnJ9vzYanFj2SS8UY6-231" value="Register a Student" style="rounded=0;whiteSpace=wrap;html=1;" vertex="1" parent="1">
          <mxGeometry x="951" y="1560" width="120" height="40" as="geometry" />
        </mxCell>
        <mxCell id="ZCRnJ9vzYanFj2SS8UY6-232" value="" style="endArrow=none;dashed=1;html=1;rounded=0;entryX=0.5;entryY=1;entryDx=0;entryDy=0;exitX=0.5;exitY=0;exitDx=0;exitDy=0;" edge="1" parent="1" source="ZCRnJ9vzYanFj2SS8UY6-243">
          <mxGeometry width="50" height="50" relative="1" as="geometry">
            <mxPoint x="1010.52" y="2010" as="sourcePoint" />
            <mxPoint x="1010.52" y="1600" as="targetPoint" />
          </mxGeometry>
        </mxCell>
        <mxCell id="ZCRnJ9vzYanFj2SS8UY6-233" value="" style="rounded=0;whiteSpace=wrap;html=1;" vertex="1" parent="1">
          <mxGeometry x="1001" y="1860" width="20" height="33" as="geometry" />
        </mxCell>
        <mxCell id="ZCRnJ9vzYanFj2SS8UY6-234" style="edgeStyle=orthogonalEdgeStyle;rounded=0;orthogonalLoop=1;jettySize=auto;html=1;entryX=-0.026;entryY=0.902;entryDx=0;entryDy=0;entryPerimeter=0;" edge="1" parent="1" source="ZCRnJ9vzYanFj2SS8UY6-233" target="ZCRnJ9vzYanFj2SS8UY6-182">
          <mxGeometry relative="1" as="geometry" />
        </mxCell>
        <mxCell id="ZCRnJ9vzYanFj2SS8UY6-235" value="4.1.Register a Student" style="text;html=1;align=center;verticalAlign=middle;whiteSpace=wrap;rounded=0;" vertex="1" parent="1">
          <mxGeometry x="876" y="1846" width="110" height="30" as="geometry" />
        </mxCell>
        <mxCell id="ZCRnJ9vzYanFj2SS8UY6-236" value="4.2. Store Attendance in DB" style="text;html=1;align=center;verticalAlign=middle;whiteSpace=wrap;rounded=0;" vertex="1" parent="1">
          <mxGeometry x="1027" y="1846" width="110" height="30" as="geometry" />
        </mxCell>
        <mxCell id="ZCRnJ9vzYanFj2SS8UY6-98" style="edgeStyle=orthogonalEdgeStyle;rounded=0;orthogonalLoop=1;jettySize=auto;html=1;entryX=0;entryY=0.5;entryDx=0;entryDy=0;" edge="1" parent="1" source="ZCRnJ9vzYanFj2SS8UY6-132" target="ZCRnJ9vzYanFj2SS8UY6-120">
          <mxGeometry relative="1" as="geometry">
            <Array as="points">
              <mxPoint x="301" y="1083" />
              <mxPoint x="301" y="1083" />
            </Array>
          </mxGeometry>
        </mxCell>
        <mxCell id="ZCRnJ9vzYanFj2SS8UY6-99" style="edgeStyle=orthogonalEdgeStyle;rounded=0;orthogonalLoop=1;jettySize=auto;html=1;entryX=0;entryY=0.5;entryDx=0;entryDy=0;" edge="1" parent="1" source="ZCRnJ9vzYanFj2SS8UY6-132" target="ZCRnJ9vzYanFj2SS8UY6-121">
          <mxGeometry relative="1" as="geometry">
            <Array as="points">
              <mxPoint x="341" y="1120" />
              <mxPoint x="341" y="1120" />
            </Array>
          </mxGeometry>
        </mxCell>
        <mxCell id="ZCRnJ9vzYanFj2SS8UY6-177" style="edgeStyle=orthogonalEdgeStyle;rounded=0;orthogonalLoop=1;jettySize=auto;html=1;entryX=0;entryY=0.5;entryDx=0;entryDy=0;" edge="1" parent="1">
          <mxGeometry relative="1" as="geometry">
            <Array as="points">
              <mxPoint x="311" y="1763" />
              <mxPoint x="311" y="1763" />
            </Array>
            <mxPoint x="231" y="1763" as="sourcePoint" />
            <mxPoint x="561" y="1763.25" as="targetPoint" />
          </mxGeometry>
        </mxCell>
        <mxCell id="ZCRnJ9vzYanFj2SS8UY6-238" style="edgeStyle=orthogonalEdgeStyle;rounded=0;orthogonalLoop=1;jettySize=auto;html=1;entryX=0.14;entryY=0.412;entryDx=0;entryDy=0;entryPerimeter=0;" edge="1" parent="1" source="ZCRnJ9vzYanFj2SS8UY6-197" target="ZCRnJ9vzYanFj2SS8UY6-182">
          <mxGeometry relative="1" as="geometry" />
        </mxCell>
        <mxCell id="ZCRnJ9vzYanFj2SS8UY6-240" value="2.3. Store Attendance in DB" style="text;html=1;align=center;verticalAlign=middle;whiteSpace=wrap;rounded=0;" vertex="1" parent="1">
          <mxGeometry x="861" y="1734.5" width="150" height="30" as="geometry" />
        </mxCell>
        <mxCell id="ZCRnJ9vzYanFj2SS8UY6-241" style="edgeStyle=orthogonalEdgeStyle;rounded=0;orthogonalLoop=1;jettySize=auto;html=1;entryX=-0.05;entryY=0.595;entryDx=0;entryDy=0;entryPerimeter=0;" edge="1" parent="1" source="ZCRnJ9vzYanFj2SS8UY6-199" target="ZCRnJ9vzYanFj2SS8UY6-182">
          <mxGeometry relative="1" as="geometry" />
        </mxCell>
        <mxCell id="ZCRnJ9vzYanFj2SS8UY6-242" value="3.1. Store Attendance in DB&lt;span style=&quot;color: rgba(0, 0, 0, 0); font-family: monospace; font-size: 0px; text-align: start; text-wrap: nowrap;&quot;&gt;%3CmxGraphModel%3E%3Croot%3E%3CmxCell%20id%3D%220%22%2F%3E%3CmxCell%20id%3D%221%22%20parent%3D%220%22%2F%3E%3CmxCell%20id%3D%222%22%20value%3D%222.%20View%20Attendance%22%20style%3D%22text%3Bhtml%3D1%3Balign%3Dcenter%3BverticalAlign%3Dmiddle%3BwhiteSpace%3Dwrap%3Brounded%3D0%3B%22%20vertex%3D%221%22%20parent%3D%221%22%3E%3CmxGeometry%20x%3D%22240%22%20y%3D%22362.5%22%20width%3D%22110%22%20height%3D%2230%22%20as%3D%22geometry%22%2F%3E%3C%2FmxCell%3E%3C%2Froot%3E%3C%2FmxGraphModel%3E&lt;/span&gt;&lt;span style=&quot;color: rgba(0, 0, 0, 0); font-family: monospace; font-size: 0px; text-align: start; text-wrap: nowrap;&quot;&gt;%3CmxGraphModel%3E%3Croot%3E%3CmxCell%20id%3D%220%22%2F%3E%3CmxCell%20id%3D%221%22%20parent%3D%220%22%2F%3E%3CmxCell%20id%3D%222%22%20value%3D%222.%20View%20Attendance%22%20style%3D%22text%3Bhtml%3D1%3Balign%3Dcenter%3BverticalAlign%3Dmiddle%3BwhiteSpace%3Dwrap%3Brounded%3D0%3B%22%20vertex%3D%221%22%20parent%3D%221%22%3E%3CmxGeometry%20x%3D%22240%22%20y%3D%22362.5%22%20width%3D%22110%22%20height%3D%2230%22%20as%3D%22geometry%22%2F%3E%3C%2FmxCell%3E%3C%2Froot%3E%3C%2FmxGraphModel%3E&lt;/span&gt;&lt;span style=&quot;color: rgba(0, 0, 0, 0); font-family: monospace; font-size: 0px; text-align: start; text-wrap: nowrap;&quot;&gt;%3CmxGraphModel%3E%3Croot%3E%3CmxCell%20id%3D%220%22%2F%3E%3CmxCell%20id%3D%221%22%20parent%3D%220%22%2F%3E%3CmxCell%20id%3D%222%22%20value%3D%222.%20View%20Attendance%22%20style%3D%22text%3Bhtml%3D1%3Balign%3Dcenter%3BverticalAlign%3Dmiddle%3BwhiteSpace%3Dwrap%3Brounded%3D0%3B%22%20vertex%3D%221%22%20parent%3D%221%22%3E%3CmxGeometry%20x%3D%22240%22%20y%3D%22362.5%22%20width%3D%22110%22%20height%3D%2230%22%20as%3D%22geometry%22%2F%3E%3C%2FmxCell%3E%3C%2Froot%3E%3C&lt;/span&gt;" style="text;html=1;align=center;verticalAlign=middle;whiteSpace=wrap;rounded=0;" vertex="1" parent="1">
          <mxGeometry x="882" y="1778" width="119" height="30" as="geometry" />
        </mxCell>
        <mxCell id="ZCRnJ9vzYanFj2SS8UY6-243" value="X" style="text;html=1;align=center;verticalAlign=middle;whiteSpace=wrap;rounded=0;" vertex="1" parent="1">
          <mxGeometry x="1001" y="1952.5" width="20" height="10" as="geometry" />
        </mxCell>
      </root>
    </mxGraphModel>
  </diagram>
</mxfile>
